<svg xmlns="http://www.w3.org/2000/svg" xmlns:xlink="http://www.w3.org/1999/xlink" width="500" zoomAndPan="magnify" viewBox="0 0 375 374.999991" height="500" preserveAspectRatio="xMidYMid meet" version="1.0"><defs><clipPath id="62d28666ee"><path d="M 95 180 L 162 180 L 162 247 L 95 247 Z M 95 180 " clip-rule="nonzero"/></clipPath><clipPath id="f822696b64"><path d="M 19.109375 165.585938 L 289.554688 69.386719 L 357.996094 261.789062 L 87.550781 357.992188 Z M 19.109375 165.585938 " clip-rule="nonzero"/></clipPath><clipPath id="6fbd5fe20e"><path d="M 19.109375 165.585938 L 289.554688 69.386719 L 357.996094 261.789062 L 87.550781 357.992188 Z M 19.109375 165.585938 " clip-rule="nonzero"/></clipPath><clipPath id="a25eeaebca"><path d="M 226 185 L 258 185 L 258 217 L 226 217 Z M 226 185 " clip-rule="nonzero"/></clipPath><clipPath id="584652ddc0"><path d="M 19.109375 165.585938 L 289.554688 69.386719 L 357.996094 261.789062 L 87.550781 357.992188 Z M 19.109375 165.585938 " clip-rule="nonzero"/></clipPath><clipPath id="d1a423359d"><path d="M 19.109375 165.585938 L 289.554688 69.386719 L 357.996094 261.789062 L 87.550781 357.992188 Z M 19.109375 165.585938 " clip-rule="nonzero"/></clipPath><clipPath id="7c7807bfcd"><path d="M 192 169 L 224 169 L 224 201 L 192 201 Z M 192 169 " clip-rule="nonzero"/></clipPath><clipPath id="9e3b2fe032"><path d="M 19.109375 165.585938 L 289.554688 69.386719 L 357.996094 261.789062 L 87.550781 357.992188 Z M 19.109375 165.585938 " clip-rule="nonzero"/></clipPath><clipPath id="86b0428fdd"><path d="M 19.109375 165.585938 L 289.554688 69.386719 L 357.996094 261.789062 L 87.550781 357.992188 Z M 19.109375 165.585938 " clip-rule="nonzero"/></clipPath><clipPath id="2ea1d82ca4"><path d="M 242 151 L 274 151 L 274 183 L 242 183 Z M 242 151 " clip-rule="nonzero"/></clipPath><clipPath id="805f70219a"><path d="M 19.109375 165.585938 L 289.554688 69.386719 L 357.996094 261.789062 L 87.550781 357.992188 Z M 19.109375 165.585938 " clip-rule="nonzero"/></clipPath><clipPath id="4eedb47f9b"><path d="M 19.109375 165.585938 L 289.554688 69.386719 L 357.996094 261.789062 L 87.550781 357.992188 Z M 19.109375 165.585938 " clip-rule="nonzero"/></clipPath><clipPath id="c4c14e2873"><path d="M 209 135 L 240 135 L 240 167 L 209 167 Z M 209 135 " clip-rule="nonzero"/></clipPath><clipPath id="84ad3e40a7"><path d="M 19.109375 165.585938 L 289.554688 69.386719 L 357.996094 261.789062 L 87.550781 357.992188 Z M 19.109375 165.585938 " clip-rule="nonzero"/></clipPath><clipPath id="eba57421b9"><path d="M 19.109375 165.585938 L 289.554688 69.386719 L 357.996094 261.789062 L 87.550781 357.992188 Z M 19.109375 165.585938 " clip-rule="nonzero"/></clipPath><clipPath id="83088bb694"><path d="M 67 105 L 328 105 L 328 325 L 67 325 Z M 67 105 " clip-rule="nonzero"/></clipPath><clipPath id="a0b188542d"><path d="M 19.109375 165.585938 L 289.554688 69.386719 L 357.996094 261.789062 L 87.550781 357.992188 Z M 19.109375 165.585938 " clip-rule="nonzero"/></clipPath><clipPath id="6f098c75b1"><path d="M 19.109375 165.585938 L 289.554688 69.386719 L 357.996094 261.789062 L 87.550781 357.992188 Z M 19.109375 165.585938 " clip-rule="nonzero"/></clipPath></defs><rect x="-37.5" width="450" fill="#ffffff" y="-37.499999" height="449.999989" fill-opacity="1"/><rect x="-37.5" width="450" fill="#1d1f1c" y="-37.499999" height="449.999989" fill-opacity="1"/><g clip-path="url(#62d28666ee)"><g clip-path="url(#f822696b64)"><g clip-path="url(#6fbd5fe20e)"><path fill="#fcec06" d="M 143.90625 191.304688 L 137.859375 193.453125 L 135.707031 187.40625 C 135.484375 186.785156 135.203125 186.1875 134.867188 185.621094 C 134.527344 185.050781 134.132812 184.523438 133.691406 184.03125 C 133.246094 183.539062 132.757812 183.097656 132.226562 182.703125 C 131.695312 182.304688 131.132812 181.964844 130.535156 181.683594 C 129.9375 181.398438 129.316406 181.175781 128.675781 181.011719 C 128.035156 180.851562 127.382812 180.753906 126.722656 180.71875 C 126.0625 180.683594 125.402344 180.714844 124.746094 180.808594 C 124.09375 180.90625 123.453125 181.0625 122.828125 181.285156 L 112.464844 184.972656 C 111.839844 185.195312 111.246094 185.476562 110.675781 185.816406 C 110.109375 186.15625 109.578125 186.546875 109.089844 186.992188 C 108.597656 187.433594 108.15625 187.921875 107.757812 188.453125 C 107.363281 188.984375 107.023438 189.546875 106.742188 190.144531 C 106.457031 190.746094 106.234375 191.363281 106.070312 192.003906 C 105.910156 192.648438 105.8125 193.296875 105.777344 193.960938 C 105.742188 194.621094 105.773438 195.277344 105.871094 195.933594 C 105.964844 196.589844 106.125 197.226562 106.34375 197.851562 L 108.496094 203.898438 L 102.449219 206.050781 C 101.824219 206.273438 101.230469 206.554688 100.660156 206.894531 C 100.09375 207.234375 99.5625 207.625 99.074219 208.070312 C 98.582031 208.511719 98.140625 209 97.742188 209.53125 C 97.347656 210.0625 97.007812 210.625 96.726562 211.222656 C 96.441406 211.820312 96.21875 212.441406 96.054688 213.082031 C 95.894531 213.726562 95.796875 214.375 95.761719 215.035156 C 95.726562 215.699219 95.757812 216.355469 95.851562 217.011719 C 95.949219 217.664062 96.105469 218.304688 96.328125 218.929688 L 100.015625 229.292969 C 100.238281 229.917969 100.519531 230.511719 100.859375 231.082031 C 101.199219 231.648438 101.589844 232.179688 102.035156 232.667969 C 102.476562 233.160156 102.964844 233.601562 103.496094 234 C 104.027344 234.394531 104.589844 234.734375 105.1875 235.015625 C 105.785156 235.300781 106.40625 235.523438 107.046875 235.6875 C 107.691406 235.847656 108.339844 235.945312 109 235.980469 C 109.664062 236.015625 110.320312 235.984375 110.976562 235.890625 C 111.628906 235.792969 112.269531 235.636719 112.894531 235.414062 L 118.941406 233.261719 L 121.09375 239.3125 C 121.316406 239.933594 121.59375 240.53125 121.933594 241.097656 C 122.273438 241.664062 122.667969 242.195312 123.109375 242.6875 C 123.554688 243.175781 124.042969 243.621094 124.574219 244.015625 C 125.101562 244.410156 125.667969 244.75 126.265625 245.035156 C 126.863281 245.316406 127.484375 245.539062 128.125 245.703125 C 128.765625 245.863281 129.417969 245.964844 130.078125 245.996094 C 130.738281 246.03125 131.398438 246 132.050781 245.90625 C 132.707031 245.808594 133.347656 245.652344 133.96875 245.429688 L 144.335938 241.742188 C 144.960938 241.519531 145.554688 241.238281 146.121094 240.898438 C 146.691406 240.558594 147.21875 240.167969 147.710938 239.726562 C 148.203125 239.28125 148.644531 238.792969 149.039062 238.261719 C 149.433594 237.730469 149.773438 237.167969 150.058594 236.570312 C 150.34375 235.972656 150.566406 235.351562 150.726562 234.710938 C 150.890625 234.070312 150.988281 233.417969 151.023438 232.757812 C 151.054688 232.097656 151.027344 231.4375 150.929688 230.785156 C 150.835938 230.128906 150.675781 229.488281 150.457031 228.867188 L 148.304688 222.816406 L 154.351562 220.667969 C 154.976562 220.445312 155.570312 220.164062 156.140625 219.824219 C 156.707031 219.484375 157.238281 219.09375 157.726562 218.648438 C 158.21875 218.203125 158.660156 217.71875 159.054688 217.1875 C 159.453125 216.65625 159.792969 216.089844 160.074219 215.492188 C 160.359375 214.894531 160.582031 214.277344 160.746094 213.632812 C 160.90625 212.992188 161.003906 212.339844 161.039062 211.679688 C 161.074219 211.019531 161.042969 210.363281 160.945312 209.707031 C 160.851562 209.050781 160.695312 208.414062 160.472656 207.789062 L 156.785156 197.421875 C 156.5625 196.800781 156.28125 196.203125 155.941406 195.636719 C 155.601562 195.066406 155.210938 194.539062 154.765625 194.046875 C 154.324219 193.558594 153.835938 193.113281 153.304688 192.71875 C 152.773438 192.324219 152.210938 191.984375 151.613281 191.699219 C 151.015625 191.417969 150.394531 191.191406 149.753906 191.03125 C 149.109375 190.867188 148.460938 190.769531 147.800781 190.738281 C 147.136719 190.703125 146.480469 190.734375 145.824219 190.828125 C 145.171875 190.921875 144.53125 191.082031 143.90625 191.304688 Z M 151.835938 210.859375 C 151.921875 211.097656 151.910156 211.332031 151.800781 211.5625 C 151.691406 211.789062 151.519531 211.945312 151.28125 212.03125 L 140.914062 215.71875 C 140.628906 215.816406 140.359375 215.945312 140.101562 216.101562 C 139.84375 216.253906 139.601562 216.433594 139.378906 216.632812 C 139.15625 216.835938 138.953125 217.058594 138.773438 217.296875 C 138.59375 217.539062 138.441406 217.796875 138.3125 218.070312 C 138.179688 218.339844 138.082031 218.621094 138.007812 218.914062 C 137.933594 219.207031 137.886719 219.5 137.871094 219.800781 C 137.859375 220.101562 137.871094 220.402344 137.914062 220.699219 C 137.957031 220.996094 138.03125 221.289062 138.132812 221.570312 L 141.820312 231.9375 C 141.902344 232.175781 141.890625 232.410156 141.785156 232.636719 C 141.675781 232.867188 141.5 233.023438 141.261719 233.105469 L 130.898438 236.792969 C 130.660156 236.878906 130.425781 236.867188 130.199219 236.757812 C 129.96875 236.648438 129.8125 236.476562 129.730469 236.238281 L 126.042969 225.871094 C 125.941406 225.589844 125.8125 225.316406 125.660156 225.058594 C 125.503906 224.800781 125.328125 224.558594 125.125 224.335938 C 124.921875 224.113281 124.703125 223.914062 124.460938 223.734375 C 124.21875 223.554688 123.960938 223.398438 123.691406 223.269531 C 123.417969 223.140625 123.136719 223.039062 122.84375 222.964844 C 122.554688 222.890625 122.257812 222.847656 121.957031 222.832031 C 121.65625 222.816406 121.355469 222.832031 121.058594 222.875 C 120.761719 222.917969 120.46875 222.988281 120.1875 223.089844 L 109.820312 226.777344 C 109.582031 226.863281 109.351562 226.851562 109.121094 226.742188 C 108.894531 226.632812 108.738281 226.460938 108.652344 226.222656 L 104.964844 215.855469 C 104.878906 215.617188 104.890625 215.386719 105 215.15625 C 105.109375 214.929688 105.28125 214.773438 105.519531 214.6875 L 115.886719 211 C 116.167969 210.898438 116.441406 210.773438 116.699219 210.617188 C 116.957031 210.464844 117.199219 210.285156 117.421875 210.082031 C 117.644531 209.882812 117.847656 209.660156 118.027344 209.417969 C 118.207031 209.175781 118.359375 208.921875 118.488281 208.648438 C 118.617188 208.378906 118.71875 208.09375 118.792969 207.804688 C 118.867188 207.511719 118.914062 207.214844 118.925781 206.914062 C 118.941406 206.613281 118.929688 206.316406 118.886719 206.015625 C 118.839844 205.71875 118.769531 205.429688 118.667969 205.144531 L 114.980469 194.78125 C 114.894531 194.542969 114.90625 194.308594 115.015625 194.078125 C 115.125 193.851562 115.296875 193.695312 115.535156 193.609375 L 125.902344 189.921875 C 126.140625 189.835938 126.375 189.847656 126.601562 189.957031 C 126.832031 190.066406 126.988281 190.242188 127.070312 190.480469 L 130.757812 200.84375 C 130.859375 201.128906 130.988281 201.398438 131.140625 201.65625 C 131.296875 201.917969 131.472656 202.15625 131.675781 202.378906 C 131.878906 202.605469 132.097656 202.804688 132.339844 202.984375 C 132.582031 203.164062 132.839844 203.320312 133.109375 203.449219 C 133.382812 203.578125 133.664062 203.679688 133.957031 203.753906 C 134.246094 203.828125 134.542969 203.871094 134.84375 203.886719 C 135.144531 203.902344 135.445312 203.886719 135.742188 203.84375 C 136.039062 203.800781 136.328125 203.726562 136.613281 203.625 L 146.980469 199.941406 C 147.21875 199.855469 147.449219 199.867188 147.679688 199.976562 C 147.90625 200.082031 148.0625 200.257812 148.148438 200.496094 Z M 151.835938 210.859375 " fill-opacity="1" fill-rule="nonzero"/></g></g></g><g clip-path="url(#a25eeaebca)"><g clip-path="url(#584652ddc0)"><g clip-path="url(#d1a423359d)"><path fill="#fcec06" d="M 237.085938 186.566406 C 236.140625 186.890625 235.234375 187.304688 234.367188 187.808594 C 233.5 188.308594 232.691406 188.890625 231.941406 189.550781 C 231.1875 190.214844 230.507812 190.941406 229.898438 191.734375 C 229.289062 192.53125 228.761719 193.378906 228.320312 194.273438 C 227.875 195.171875 227.523438 196.105469 227.265625 197.070312 C 227.003906 198.039062 226.839844 199.023438 226.773438 200.019531 C 226.707031 201.019531 226.734375 202.015625 226.863281 203.007812 C 226.992188 204.003906 227.214844 204.972656 227.535156 205.921875 C 227.851562 206.871094 228.257812 207.78125 228.757812 208.652344 C 229.253906 209.519531 229.828125 210.332031 230.484375 211.089844 C 231.144531 211.84375 231.867188 212.53125 232.65625 213.144531 C 233.449219 213.757812 234.289062 214.289062 235.1875 214.738281 C 236.082031 215.1875 237.011719 215.546875 237.976562 215.8125 C 238.941406 216.078125 239.921875 216.25 240.921875 216.324219 C 241.921875 216.394531 242.917969 216.371094 243.910156 216.25 C 244.90625 216.128906 245.878906 215.910156 246.828125 215.597656 C 265.671875 208.503906 256.546875 180.558594 237.085938 186.566406 Z M 243.925781 206.902344 C 243.546875 207.03125 243.160156 207.117188 242.761719 207.167969 C 242.363281 207.214844 241.964844 207.226562 241.566406 207.199219 C 241.167969 207.171875 240.773438 207.105469 240.386719 207 C 240.003906 206.894531 239.628906 206.753906 239.269531 206.574219 C 238.914062 206.398438 238.574219 206.1875 238.257812 205.941406 C 237.941406 205.699219 237.648438 205.425781 237.382812 205.125 C 237.121094 204.824219 236.886719 204.5 236.6875 204.15625 C 236.484375 203.808594 236.320312 203.445312 236.191406 203.066406 C 236.058594 202.691406 235.96875 202.300781 235.914062 201.90625 C 235.859375 201.507812 235.84375 201.109375 235.867188 200.710938 C 235.890625 200.3125 235.949219 199.917969 236.050781 199.53125 C 236.152344 199.144531 236.289062 198.769531 236.460938 198.40625 C 236.632812 198.046875 236.839844 197.707031 237.082031 197.386719 C 237.320312 197.066406 237.589844 196.769531 237.886719 196.503906 C 238.183594 196.234375 238.503906 196 238.847656 195.792969 C 239.191406 195.589844 239.554688 195.417969 239.929688 195.28125 C 240.308594 195.15625 240.699219 195.070312 241.09375 195.019531 C 241.492188 194.972656 241.890625 194.960938 242.289062 194.988281 C 242.6875 195.019531 243.082031 195.085938 243.46875 195.191406 C 243.851562 195.296875 244.226562 195.4375 244.582031 195.613281 C 244.941406 195.792969 245.28125 196.003906 245.597656 196.246094 C 245.914062 196.492188 246.207031 196.761719 246.46875 197.0625 C 246.734375 197.363281 246.964844 197.6875 247.167969 198.035156 C 247.367188 198.378906 247.53125 198.742188 247.664062 199.121094 C 247.792969 199.5 247.886719 199.886719 247.941406 200.28125 C 247.996094 200.679688 248.011719 201.078125 247.988281 201.476562 C 247.964844 201.875 247.902344 202.269531 247.800781 202.65625 C 247.703125 203.042969 247.566406 203.417969 247.390625 203.777344 C 247.21875 204.140625 247.011719 204.480469 246.773438 204.800781 C 246.535156 205.121094 246.265625 205.414062 245.96875 205.683594 C 245.671875 205.949219 245.351562 206.1875 245.007812 206.394531 C 244.664062 206.597656 244.304688 206.769531 243.925781 206.902344 Z M 243.925781 206.902344 " fill-opacity="1" fill-rule="nonzero"/></g></g></g><g clip-path="url(#7c7807bfcd)"><g clip-path="url(#9e3b2fe032)"><g clip-path="url(#86b0428fdd)"><path fill="#fcec06" d="M 203.277344 170.421875 C 184.222656 177.386719 193.96875 205.832031 213.210938 199.292969 C 214.148438 198.957031 215.039062 198.53125 215.890625 198.019531 C 216.742188 197.507812 217.535156 196.921875 218.273438 196.253906 C 219.007812 195.589844 219.675781 194.859375 220.269531 194.0625 C 220.863281 193.265625 221.375 192.421875 221.804688 191.523438 C 222.230469 190.628906 222.570312 189.699219 222.816406 188.738281 C 223.066406 187.777344 223.21875 186.800781 223.273438 185.808594 C 223.332031 184.820312 223.292969 183.832031 223.15625 182.847656 C 223.023438 181.863281 222.792969 180.902344 222.46875 179.964844 C 222.144531 179.023438 221.734375 178.125 221.238281 177.265625 C 220.738281 176.40625 220.160156 175.605469 219.507812 174.859375 C 218.851562 174.113281 218.128906 173.4375 217.34375 172.832031 C 216.554688 172.226562 215.71875 171.703125 214.828125 171.261719 C 213.941406 170.816406 213.015625 170.464844 212.058594 170.203125 C 211.101562 169.941406 210.125 169.777344 209.136719 169.703125 C 208.144531 169.632812 207.15625 169.65625 206.171875 169.777344 C 205.1875 169.898438 204.222656 170.113281 203.277344 170.421875 Z M 210.011719 190.699219 C 209.632812 190.8125 209.246094 190.890625 208.855469 190.933594 C 208.460938 190.972656 208.066406 190.972656 207.675781 190.9375 C 207.28125 190.902344 206.894531 190.828125 206.515625 190.714844 C 206.136719 190.605469 205.773438 190.457031 205.421875 190.273438 C 205.070312 190.09375 204.742188 189.878906 204.433594 189.632812 C 204.125 189.386719 203.84375 189.113281 203.585938 188.808594 C 203.332031 188.507812 203.105469 188.1875 202.914062 187.839844 C 202.722656 187.496094 202.5625 187.136719 202.441406 186.761719 C 202.316406 186.386719 202.230469 186.003906 202.183594 185.609375 C 202.132812 185.21875 202.125 184.824219 202.152344 184.429688 C 202.179688 184.035156 202.246094 183.648438 202.347656 183.269531 C 202.453125 182.886719 202.59375 182.519531 202.765625 182.164062 C 202.941406 181.808594 203.148438 181.476562 203.386719 181.164062 C 203.628906 180.847656 203.894531 180.558594 204.191406 180.296875 C 204.488281 180.035156 204.804688 179.804688 205.144531 179.605469 C 205.484375 179.40625 205.84375 179.238281 206.214844 179.109375 C 206.597656 178.972656 206.992188 178.878906 207.394531 178.824219 C 207.796875 178.765625 208.199219 178.75 208.605469 178.773438 C 209.007812 178.800781 209.410156 178.863281 209.800781 178.96875 C 210.191406 179.070312 210.570312 179.214844 210.933594 179.394531 C 211.300781 179.574219 211.640625 179.785156 211.964844 180.035156 C 212.285156 180.28125 212.578125 180.558594 212.84375 180.867188 C 213.109375 181.171875 213.34375 181.503906 213.542969 181.855469 C 213.742188 182.210938 213.90625 182.578125 214.035156 182.964844 C 214.160156 183.351562 214.246094 183.746094 214.292969 184.148438 C 214.34375 184.550781 214.347656 184.957031 214.316406 185.359375 C 214.28125 185.765625 214.210938 186.164062 214.097656 186.554688 C 213.984375 186.941406 213.835938 187.316406 213.648438 187.679688 C 213.460938 188.039062 213.238281 188.375 212.984375 188.691406 C 212.730469 189.007812 212.445312 189.296875 212.132812 189.554688 C 211.820312 189.816406 211.488281 190.042969 211.128906 190.234375 C 210.773438 190.425781 210.398438 190.582031 210.011719 190.699219 Z M 210.011719 190.699219 " fill-opacity="1" fill-rule="nonzero"/></g></g></g><g clip-path="url(#2ea1d82ca4)"><g clip-path="url(#805f70219a)"><g clip-path="url(#4eedb47f9b)"><path fill="#fcec06" d="M 253.070312 152.710938 C 234.160156 159.984375 243.640625 187.960938 263.097656 181.546875 C 281.945312 174.492188 272.054688 146.65625 253.070312 152.710938 Z M 259.890625 172.957031 C 259.511719 173.082031 259.125 173.167969 258.726562 173.214844 C 258.332031 173.261719 257.9375 173.273438 257.539062 173.242188 C 257.140625 173.210938 256.75 173.144531 256.367188 173.039062 C 255.984375 172.929688 255.613281 172.789062 255.257812 172.609375 C 254.902344 172.429688 254.566406 172.21875 254.25 171.976562 C 253.9375 171.730469 253.648438 171.457031 253.386719 171.15625 C 253.128906 170.855469 252.898438 170.53125 252.699219 170.1875 C 252.503906 169.839844 252.339844 169.480469 252.214844 169.101562 C 252.085938 168.722656 252 168.339844 251.945312 167.941406 C 251.894531 167.546875 251.882812 167.152344 251.910156 166.753906 C 251.9375 166.355469 252 165.964844 252.105469 165.582031 C 252.207031 165.195312 252.347656 164.824219 252.523438 164.46875 C 252.699219 164.109375 252.910156 163.773438 253.152344 163.457031 C 253.390625 163.140625 253.664062 162.851562 253.960938 162.585938 C 254.261719 162.324219 254.582031 162.09375 254.925781 161.890625 C 255.269531 161.691406 255.628906 161.527344 256.007812 161.398438 C 256.386719 161.273438 256.773438 161.1875 257.167969 161.140625 C 257.5625 161.089844 257.960938 161.082031 258.355469 161.113281 C 258.753906 161.140625 259.144531 161.210938 259.527344 161.316406 C 259.914062 161.421875 260.28125 161.566406 260.636719 161.742188 C 260.996094 161.921875 261.328125 162.132812 261.644531 162.378906 C 261.957031 162.621094 262.246094 162.894531 262.507812 163.195312 C 262.769531 163.496094 262.996094 163.820312 263.195312 164.167969 C 263.394531 164.511719 263.554688 164.875 263.683594 165.25 C 263.808594 165.628906 263.898438 166.015625 263.949219 166.410156 C 264 166.804688 264.011719 167.203125 263.984375 167.597656 C 263.960938 167.996094 263.894531 168.386719 263.792969 168.773438 C 263.6875 169.15625 263.546875 169.527344 263.371094 169.886719 C 263.195312 170.242188 262.988281 170.578125 262.746094 170.894531 C 262.503906 171.210938 262.234375 171.503906 261.933594 171.765625 C 261.636719 172.03125 261.3125 172.261719 260.96875 172.460938 C 260.625 172.660156 260.265625 172.828125 259.890625 172.957031 Z M 259.890625 172.957031 " fill-opacity="1" fill-rule="nonzero"/></g></g></g><g clip-path="url(#c4c14e2873)"><g clip-path="url(#84ad3e40a7)"><g clip-path="url(#eba57421b9)"><path fill="#fcec06" d="M 229.222656 165.71875 C 230.164062 165.382812 231.066406 164.957031 231.925781 164.441406 C 232.785156 163.925781 233.585938 163.335938 234.328125 162.664062 C 235.074219 161.996094 235.746094 161.257812 236.347656 160.457031 C 236.945312 159.65625 237.464844 158.804688 237.898438 157.902344 C 238.332031 156.996094 238.675781 156.0625 238.925781 155.09375 C 239.179688 154.125 239.335938 153.136719 239.394531 152.140625 C 239.453125 151.140625 239.414062 150.144531 239.28125 149.152344 C 239.148438 148.15625 238.917969 147.1875 238.59375 146.242188 C 238.269531 145.292969 237.855469 144.386719 237.355469 143.519531 C 236.855469 142.652344 236.273438 141.839844 235.617188 141.085938 C 234.957031 140.332031 234.230469 139.648438 233.4375 139.035156 C 232.644531 138.421875 231.800781 137.894531 230.90625 137.445312 C 230.011719 136.996094 229.082031 136.640625 228.113281 136.375 C 227.148438 136.105469 226.167969 135.9375 225.167969 135.863281 C 224.167969 135.785156 223.171875 135.808594 222.179688 135.929688 C 221.183594 136.046875 220.210938 136.261719 219.257812 136.570312 C 218.316406 136.910156 217.414062 137.335938 216.554688 137.851562 C 215.695312 138.363281 214.894531 138.957031 214.148438 139.628906 C 213.40625 140.296875 212.734375 141.035156 212.132812 141.835938 C 211.53125 142.636719 211.015625 143.488281 210.582031 144.390625 C 210.148438 145.292969 209.804688 146.230469 209.550781 147.199219 C 209.300781 148.167969 209.144531 149.152344 209.085938 150.152344 C 209.027344 151.152344 209.0625 152.148438 209.199219 153.140625 C 209.332031 154.132812 209.5625 155.105469 209.886719 156.050781 C 210.210938 157 210.621094 157.90625 211.125 158.773438 C 211.625 159.640625 212.203125 160.453125 212.863281 161.207031 C 213.523438 161.960938 214.25 162.644531 215.039062 163.257812 C 215.832031 163.871094 216.675781 164.398438 217.574219 164.847656 C 218.46875 165.296875 219.398438 165.652344 220.363281 165.917969 C 221.332031 166.183594 222.3125 166.355469 223.3125 166.429688 C 224.308594 166.503906 225.304688 166.484375 226.300781 166.363281 C 227.296875 166.246094 228.269531 166.03125 229.222656 165.71875 Z M 218.726562 148.4375 C 218.996094 147.898438 219.339844 147.410156 219.753906 146.972656 C 220.167969 146.535156 220.636719 146.164062 221.160156 145.863281 C 221.683594 145.5625 222.238281 145.34375 222.824219 145.203125 C 223.410156 145.0625 224.003906 145.011719 224.609375 145.046875 C 225.210938 145.082031 225.792969 145.203125 226.359375 145.40625 C 226.929688 145.613281 227.453125 145.894531 227.9375 146.257812 C 228.421875 146.617188 228.84375 147.035156 229.207031 147.519531 C 229.566406 148.003906 229.851562 148.527344 230.058594 149.09375 C 230.179688 149.480469 230.261719 149.875 230.308594 150.273438 C 230.355469 150.675781 230.363281 151.078125 230.335938 151.480469 C 230.308594 151.882812 230.242188 152.277344 230.140625 152.667969 C 230.035156 153.058594 229.898438 153.4375 229.726562 153.800781 C 229.554688 154.164062 229.347656 154.511719 229.109375 154.835938 C 228.871094 155.164062 228.605469 155.464844 228.3125 155.742188 C 228.019531 156.019531 227.703125 156.265625 227.363281 156.480469 C 227.023438 156.699219 226.664062 156.882812 226.289062 157.035156 C 225.710938 157.226562 225.117188 157.328125 224.507812 157.34375 C 223.898438 157.359375 223.296875 157.289062 222.707031 157.128906 C 222.121094 156.96875 221.566406 156.726562 221.050781 156.40625 C 220.53125 156.082031 220.070312 155.691406 219.667969 155.234375 C 219.265625 154.777344 218.9375 154.269531 218.683594 153.714844 C 218.429688 153.160156 218.257812 152.582031 218.175781 151.976562 C 218.09375 151.375 218.097656 150.769531 218.191406 150.167969 C 218.285156 149.566406 218.464844 148.988281 218.726562 148.4375 Z M 218.726562 148.4375 " fill-opacity="1" fill-rule="nonzero"/></g></g></g><g clip-path="url(#83088bb694)"><g clip-path="url(#a0b188542d)"><g clip-path="url(#6f098c75b1)"><path fill="#fcec06" d="M 327.246094 229.019531 C 325.0625 201.753906 313.953125 181.039062 296.128906 153.394531 C 278.246094 125.480469 243.335938 90.5625 206.664062 112.621094 C 188.667969 122.226562 169.640625 140.359375 149.636719 141.636719 C 138.328125 142.710938 127.097656 144.257812 115.996094 145.6875 C 52.570312 153.753906 64.882812 238.75 79.46875 287.292969 C 89.351562 319.742188 115.03125 340.40625 142.769531 309.667969 C 151.101562 300.113281 158.109375 289.667969 163.792969 278.332031 C 165.597656 274.589844 167.835938 271.125 170.5 267.9375 C 173.167969 264.75 176.183594 261.9375 179.546875 259.496094 C 200.144531 245.761719 226.9375 236.976562 251.753906 248.074219 C 275.34375 259.40625 327.109375 272.34375 327.246094 229.019531 Z M 298.042969 250.050781 C 269.148438 251.488281 245.628906 228.542969 217.976562 234.550781 C 192.628906 239.3125 168.148438 249.5625 155.675781 274.074219 C 150.351562 284.714844 143.792969 294.523438 135.988281 303.503906 C 86.847656 355.6875 72.777344 222.761719 78.164062 199.417969 C 84.554688 152.628906 111.191406 155.355469 150.488281 150.765625 C 163.945312 150.078125 179.246094 141.570312 191.75 132.761719 C 211.835938 118.792969 231.660156 106.324219 255.039062 122.777344 C 282.167969 136.714844 352.335938 247.304688 298.042969 250.050781 Z M 298.042969 250.050781 " fill-opacity="1" fill-rule="nonzero"/></g></g></g><path fill="#ffb100" d="M 49.71875 121.875 C 49.71875 121.875 4.667969 188.898438 28.109375 269.921875 C 30.800781 268.511719 33.609375 267.226562 36.300781 265.820312 C 28.8125 222.976562 38.132812 163.160156 65.105469 131.914062 C 60.035156 128.53125 54.945312 125.273438 49.71875 121.875 Z M 49.71875 121.875 " fill-opacity="1" fill-rule="evenodd"/><path fill="#231f20" d="M 26.214844 274.386719 L 25.175781 270.777344 C 1.609375 189.328125 46.722656 120.851562 47.179688 120.179688 L 48.863281 117.683594 L 55.464844 121.96875 C 59.285156 124.433594 63.042969 126.863281 66.804688 129.375 L 69.691406 131.300781 L 67.429688 133.917969 C 39.847656 165.882812 32.359375 225.46875 39.3125 265.300781 L 39.691406 267.503906 L 37.722656 268.542969 C 36.347656 269.261719 34.941406 269.949219 33.535156 270.640625 C 32.191406 271.296875 30.84375 271.957031 29.53125 272.644531 Z M 50.679688 126.144531 C 43.132812 138.832031 11.910156 197.113281 30.066406 265.511719 C 30.339844 265.375 30.601562 265.253906 30.875 265.117188 C 31.5625 264.777344 32.25 264.441406 32.921875 264.105469 C 26.550781 224 34.085938 165.882812 60.582031 132.574219 C 57.789062 130.734375 54.992188 128.914062 52.148438 127.078125 Z M 50.679688 126.144531 " fill-opacity="1" fill-rule="nonzero"/><path fill="#ffb100" d="M 326.078125 121.875 C 326.078125 121.875 371.269531 188.898438 347.824219 269.921875 C 345.136719 268.511719 342.324219 267.226562 339.632812 265.820312 C 347.121094 222.976562 337.800781 163.160156 310.828125 131.914062 C 315.917969 128.53125 321.003906 125.273438 326.078125 121.875 Z M 326.078125 121.875 " fill-opacity="1" fill-rule="evenodd"/><path fill="#231f20" d="M 349.71875 274.386719 L 346.402344 272.644531 C 345.089844 271.957031 343.746094 271.296875 342.398438 270.640625 C 340.996094 269.949219 339.589844 269.261719 338.214844 268.542969 L 336.242188 267.503906 L 336.625 265.300781 C 343.578125 225.46875 336.105469 165.882812 308.519531 133.917969 L 306.257812 131.300781 L 309.144531 129.375 C 311.699219 127.660156 314.265625 125.992188 316.816406 124.324219 C 319.339844 122.671875 321.875 121.019531 324.398438 119.335938 L 326.917969 117.652344 L 328.617188 120.179688 C 329.074219 120.867188 374.339844 189.328125 350.773438 270.792969 Z M 343.027344 264.121094 C 343.714844 264.457031 344.386719 264.792969 345.074219 265.128906 C 345.351562 265.269531 345.609375 265.390625 345.882812 265.527344 C 364.023438 197.175781 332.757812 138.921875 325.148438 126.175781 C 323.480469 127.277344 321.816406 128.363281 320.148438 129.449219 C 318.558594 130.492188 316.957031 131.53125 315.367188 132.585938 C 341.867188 165.898438 349.382812 224.015625 343.027344 264.121094 Z M 343.027344 264.121094 " fill-opacity="1" fill-rule="nonzero"/><path fill="#01c3dc" d="M 306.320312 139.976562 C 313.105469 148.609375 336.546875 125.703125 330.894531 117.636719 C 266.355469 17.105469 109.609375 17.242188 45.074219 117.636719 C 39.417969 125.703125 62.859375 148.609375 69.644531 139.976562 C 135.160156 62.78125 243.1875 62.644531 306.320312 139.976562 Z M 306.320312 139.976562 " fill-opacity="1" fill-rule="evenodd"/><path fill="#231f20" d="M 65.566406 144.980469 C 62.28125 144.980469 58.351562 143.40625 54.148438 140.285156 C 46.554688 134.621094 37.613281 122.964844 42.566406 115.878906 C 73.390625 67.921875 127.792969 39.230469 188.035156 39.230469 C 188.050781 39.230469 188.082031 39.230469 188.097656 39.230469 C 248.277344 39.246094 302.621094 67.9375 333.460938 115.984375 C 338.351562 122.949219 329.410156 134.621094 321.816406 140.285156 C 314.265625 145.898438 307.585938 146.511719 303.933594 141.890625 C 274.378906 105.6875 234.019531 85.503906 190.296875 85.089844 C 189.824219 85.089844 189.351562 85.089844 188.890625 85.089844 C 144.605469 85.089844 103.128906 105.242188 71.96875 141.96875 C 70.378906 143.988281 68.179688 144.980469 65.566406 144.980469 Z M 188.953125 78.96875 C 189.410156 78.96875 189.886719 78.96875 190.34375 78.96875 C 235.914062 79.414062 277.941406 100.394531 308.671875 138.035156 L 308.703125 138.082031 C 310.171875 139.949219 314.632812 137.988281 318.148438 135.355469 C 325.390625 129.957031 330.050781 121.785156 328.371094 119.382812 C 298.601562 73.019531 246.183594 45.367188 188.082031 45.351562 C 188.066406 45.351562 188.035156 45.351562 188.019531 45.351562 C 129.871094 45.351562 77.394531 72.988281 47.625 119.289062 C 45.882812 121.785156 50.527344 129.972656 57.789062 135.355469 C 61.300781 137.972656 65.765625 139.949219 67.230469 138.082031 C 99.1875 100.421875 143.457031 78.96875 188.953125 78.96875 Z M 188.953125 78.96875 " fill-opacity="1" fill-rule="nonzero"/><path fill="#01c3dc" d="M 88.976562 213.792969 C 92.796875 234.726562 96.605469 255.644531 100.425781 276.4375 C 104.382812 297.371094 108.1875 318.289062 112.007812 339.222656 C 115.109375 355.625 70.777344 357.890625 67.8125 342.191406 C 64.28125 322.957031 60.75 303.738281 57.222656 284.503906 C 53.691406 265.269531 50.160156 245.898438 46.632812 226.675781 C 43.652344 211.101562 85.875 197.253906 88.976562 213.792969 Z M 88.976562 213.792969 " fill-opacity="1" fill-rule="evenodd"/><path fill="#231f20" d="M 89.511719 355.839844 C 84.636719 355.839844 79.898438 355.136719 76.09375 353.804688 C 69.628906 351.539062 65.71875 347.714844 64.785156 342.757812 L 54.195312 285.054688 C 52.40625 275.304688 50.621094 265.511719 48.832031 255.71875 C 47.089844 246.203125 45.347656 236.699219 43.605469 227.214844 C 42.6875 222.363281 44.875 217.480469 49.933594 213.105469 C 58 206.144531 73.972656 200.847656 83.996094 204.367188 C 88.351562 205.898438 91.179688 209.050781 91.972656 213.226562 L 92.171875 214.359375 C 95.914062 234.910156 99.660156 255.476562 103.402344 275.886719 C 107.363281 296.804688 111.230469 318.089844 114.988281 338.671875 C 115.765625 342.769531 114.300781 346.6875 110.863281 349.640625 C 105.941406 353.894531 97.566406 355.839844 89.511719 355.839844 Z M 76.722656 209.371094 C 69.433594 209.371094 59.742188 212.722656 53.9375 217.742188 C 51.628906 219.730469 49 222.804688 49.625 226.082031 C 51.367188 235.582031 53.109375 245.101562 54.851562 254.601562 C 56.640625 264.394531 58.429688 274.175781 60.21875 283.921875 L 70.808594 341.609375 C 71.449219 344.988281 75.132812 346.949219 78.128906 348.003906 C 87.359375 351.234375 101.339844 349.765625 106.902344 344.976562 C 109.289062 342.925781 109.242188 341.011719 108.996094 339.757812 C 105.238281 319.160156 101.371094 297.890625 97.414062 276.972656 C 93.667969 256.53125 89.925781 235.980469 86.179688 215.429688 L 85.984375 214.328125 C 85.738281 213.027344 85.050781 211.191406 81.992188 210.121094 C 80.480469 209.617188 78.691406 209.371094 76.722656 209.371094 Z M 76.722656 209.371094 " fill-opacity="1" fill-rule="nonzero"/><path fill="#01c3dc" d="M 286.972656 213.792969 C 283.167969 234.726562 279.347656 255.644531 275.542969 276.4375 C 271.582031 297.371094 267.777344 318.289062 263.957031 339.222656 C 260.855469 355.625 305.1875 357.890625 308.152344 342.191406 C 311.683594 322.957031 315.214844 303.738281 318.742188 284.503906 C 322.273438 265.269531 325.804688 245.898438 329.335938 226.675781 C 332.296875 211.101562 290.074219 197.253906 286.972656 213.792969 Z M 286.972656 213.792969 " fill-opacity="1" fill-rule="evenodd"/><path fill="#231f20" d="M 286.421875 355.839844 C 278.382812 355.839844 270.007812 353.894531 265.058594 349.640625 C 261.621094 346.671875 260.152344 342.769531 260.945312 338.65625 C 264.691406 318.089844 268.574219 296.820312 272.53125 275.871094 C 276.335938 255.109375 280.15625 234.175781 283.960938 213.257812 L 283.960938 213.242188 C 284.757812 209.050781 287.582031 205.914062 291.9375 204.382812 C 301.980469 200.863281 317.949219 206.171875 326.003906 213.121094 C 331.078125 217.496094 333.261719 222.378906 332.328125 227.242188 C 330.511719 237.128906 328.691406 247.058594 326.875 256.992188 C 325.160156 266.355469 323.449219 275.71875 321.738281 285.054688 L 311.148438 342.742188 C 310.199219 347.714844 306.304688 351.539062 299.839844 353.804688 C 296.050781 355.136719 291.296875 355.839844 286.421875 355.839844 Z M 289.96875 214.34375 C 286.148438 235.277344 282.339844 256.195312 278.535156 276.972656 C 274.578125 297.90625 270.710938 319.175781 266.953125 339.757812 C 266.707031 341.027344 266.664062 342.941406 269.046875 344.988281 C 274.609375 349.78125 288.59375 351.25 297.824219 348.019531 C 300.800781 346.980469 304.5 345.019531 305.140625 341.609375 L 315.734375 283.9375 C 317.445312 274.601562 319.15625 265.238281 320.867188 255.875 C 322.6875 245.941406 324.503906 235.996094 326.324219 226.097656 C 326.949219 222.789062 324.320312 219.730469 322.015625 217.726562 C 314.632812 211.34375 300.984375 207.65625 293.957031 210.121094 C 290.898438 211.207031 290.210938 213.058594 289.96875 214.34375 Z M 289.96875 214.34375 " fill-opacity="1" fill-rule="nonzero"/><path fill="#ffb100" d="M 46.617188 226.664062 C 40.6875 227.792969 36.726562 233.457031 37.859375 239.394531 L 55.234375 333.558594 C 56.226562 339.359375 62.019531 343.324219 67.796875 342.191406 Z M 46.617188 226.664062 " fill-opacity="1" fill-rule="evenodd"/><path fill="#231f20" d="M 65.824219 345.433594 C 63.042969 345.433594 60.277344 344.578125 57.941406 342.957031 C 54.867188 340.828125 52.835938 337.675781 52.222656 334.066406 L 34.863281 239.929688 C 34.160156 236.273438 34.957031 232.554688 37.078125 229.460938 C 39.1875 226.402344 42.382812 224.335938 46.050781 223.632812 L 49.078125 223.050781 L 71.359375 344.578125 L 68.394531 345.160156 C 67.539062 345.34375 66.679688 345.433594 65.824219 345.433594 Z M 44.277344 230.839844 C 43.4375 231.390625 42.6875 232.109375 42.109375 232.964844 C 40.914062 234.679688 40.472656 236.761719 40.871094 238.8125 L 58.246094 332.992188 C 58.582031 335 59.710938 336.726562 61.425781 337.921875 C 62.25 338.503906 63.183594 338.898438 64.144531 339.113281 Z M 44.277344 230.839844 " fill-opacity="1" fill-rule="nonzero"/><path fill="#ffb100" d="M 329.335938 226.664062 C 335.261719 227.792969 339.222656 233.457031 338.089844 239.394531 L 320.714844 333.558594 C 319.722656 339.359375 313.929688 343.324219 308.152344 342.191406 Z M 329.335938 226.664062 " fill-opacity="1" fill-rule="evenodd"/><path fill="#231f20" d="M 310.109375 345.433594 C 309.253906 345.433594 308.398438 345.359375 307.558594 345.1875 L 304.59375 344.609375 L 326.875 223.082031 L 329.898438 223.664062 C 333.566406 224.367188 336.746094 226.433594 338.871094 229.492188 C 340.996094 232.570312 341.789062 236.300781 341.085938 239.976562 L 323.726562 334.125 C 323.113281 337.691406 321.082031 340.84375 318.011719 342.96875 C 315.671875 344.578125 312.890625 345.433594 310.109375 345.433594 Z M 331.671875 230.839844 L 311.820312 339.113281 C 312.785156 338.898438 313.699219 338.488281 314.542969 337.921875 C 316.253906 336.742188 317.382812 335 317.703125 333.039062 L 335.082031 238.828125 C 335.691406 235.644531 334.238281 232.539062 331.671875 230.839844 Z M 331.671875 230.839844 " fill-opacity="1" fill-rule="nonzero"/><path fill="#ff47f9" d="M 39.128906 246.171875 C 28.8125 254.511719 23.601562 271.617188 26.839844 290.011719 C 30.234375 308.386719 41.390625 322.679688 53.953125 326.78125 Z M 39.128906 246.171875 " fill-opacity="1" fill-rule="evenodd"/><path fill="#231f20" d="M 57.894531 331.265625 L 53.003906 329.671875 C 39.019531 325.113281 27.300781 309.398438 23.832031 290.5625 C 20.453125 271.449219 25.710938 253.105469 37.203125 243.785156 L 41.207031 240.554688 Z M 37.1875 252.476562 C 30.265625 261.136719 27.34375 275.230469 29.851562 289.476562 C 32.480469 303.753906 40.242188 315.949219 49.902344 321.59375 Z M 37.1875 252.476562 " fill-opacity="1" fill-rule="nonzero"/><path fill="#ff47f9" d="M 336.820312 246.171875 C 347.136719 254.511719 352.347656 271.617188 348.972656 290.011719 C 345.714844 308.386719 334.558594 322.679688 322 326.78125 Z M 336.820312 246.171875 " fill-opacity="1" fill-rule="evenodd"/><path fill="#231f20" d="M 318.054688 331.265625 L 334.742188 240.554688 L 338.734375 243.785156 C 350.285156 253.132812 355.480469 271.496094 351.96875 290.5625 C 348.636719 309.367188 336.976562 325.097656 322.929688 329.671875 Z M 338.761719 252.476562 L 326.046875 321.59375 C 335.722656 315.949219 343.425781 303.753906 345.945312 289.476562 C 348.574219 275.230469 345.699219 261.152344 338.761719 252.476562 Z M 338.761719 252.476562 " fill-opacity="1" fill-rule="nonzero"/></svg>