<svg xmlns="http://www.w3.org/2000/svg" xmlns:xlink="http://www.w3.org/1999/xlink" width="1920" zoomAndPan="magnify" viewBox="0 0 1440 809.999993" height="1080" preserveAspectRatio="xMidYMid meet" version="1.0"><defs><clipPath id="58a155082a"><path d="M 537 397 L 666 397 L 666 526 L 537 526 Z M 537 397 " clip-rule="nonzero"/></clipPath><clipPath id="91c0ebcdd9"><path d="M 376.300781 389.789062 L 895.234375 141.292969 L 1069.183594 504.546875 L 550.25 753.042969 Z M 376.300781 389.789062 " clip-rule="nonzero"/></clipPath><clipPath id="3602d2cae3"><path d="M 376.300781 389.789062 L 895.234375 141.292969 L 1069.183594 504.546875 L 550.25 753.042969 Z M 376.300781 389.789062 " clip-rule="nonzero"/></clipPath><clipPath id="2929600280"><path d="M 792 383 L 853 383 L 853 444 L 792 444 Z M 792 383 " clip-rule="nonzero"/></clipPath><clipPath id="fc56992652"><path d="M 376.300781 389.789062 L 895.234375 141.292969 L 1069.183594 504.546875 L 550.25 753.042969 Z M 376.300781 389.789062 " clip-rule="nonzero"/></clipPath><clipPath id="18f0d369d3"><path d="M 376.300781 389.789062 L 895.234375 141.292969 L 1069.183594 504.546875 L 550.25 753.042969 Z M 376.300781 389.789062 " clip-rule="nonzero"/></clipPath><clipPath id="f0c8129e6c"><path d="M 722 358 L 783 358 L 783 420 L 722 420 Z M 722 358 " clip-rule="nonzero"/></clipPath><clipPath id="7459b96fe0"><path d="M 376.300781 389.789062 L 895.234375 141.292969 L 1069.183594 504.546875 L 550.25 753.042969 Z M 376.300781 389.789062 " clip-rule="nonzero"/></clipPath><clipPath id="53e478289e"><path d="M 376.300781 389.789062 L 895.234375 141.292969 L 1069.183594 504.546875 L 550.25 753.042969 Z M 376.300781 389.789062 " clip-rule="nonzero"/></clipPath><clipPath id="a5d83e767c"><path d="M 816 313 L 878 313 L 878 374 L 816 374 Z M 816 313 " clip-rule="nonzero"/></clipPath><clipPath id="8800d1170a"><path d="M 376.300781 389.789062 L 895.234375 141.292969 L 1069.183594 504.546875 L 550.25 753.042969 Z M 376.300781 389.789062 " clip-rule="nonzero"/></clipPath><clipPath id="8c03cf0b84"><path d="M 376.300781 389.789062 L 895.234375 141.292969 L 1069.183594 504.546875 L 550.25 753.042969 Z M 376.300781 389.789062 " clip-rule="nonzero"/></clipPath><clipPath id="7239fc075b"><path d="M 747 288 L 808 288 L 808 350 L 747 350 Z M 747 288 " clip-rule="nonzero"/></clipPath><clipPath id="036e84b4ff"><path d="M 376.300781 389.789062 L 895.234375 141.292969 L 1069.183594 504.546875 L 550.25 753.042969 Z M 376.300781 389.789062 " clip-rule="nonzero"/></clipPath><clipPath id="86ac90b312"><path d="M 376.300781 389.789062 L 895.234375 141.292969 L 1069.183594 504.546875 L 550.25 753.042969 Z M 376.300781 389.789062 " clip-rule="nonzero"/></clipPath><clipPath id="d70d14bedc"><path d="M 480 227 L 997 227 L 997 684 L 480 684 Z M 480 227 " clip-rule="nonzero"/></clipPath><clipPath id="54d280a9dd"><path d="M 376.300781 389.789062 L 895.234375 141.292969 L 1069.183594 504.546875 L 550.25 753.042969 Z M 376.300781 389.789062 " clip-rule="nonzero"/></clipPath><clipPath id="36f3ef4ee4"><path d="M 376.300781 389.789062 L 895.234375 141.292969 L 1069.183594 504.546875 L 550.25 753.042969 Z M 376.300781 389.789062 " clip-rule="nonzero"/></clipPath></defs><g clip-path="url(#58a155082a)"><g clip-path="url(#91c0ebcdd9)"><g clip-path="url(#3602d2cae3)"><path fill="#ffb100" d="M 627.429688 414.625 L 615.964844 420.117188 L 610.476562 408.652344 C 610.195312 408.0625 609.882812 407.488281 609.542969 406.929688 C 609.203125 406.371094 608.839844 405.828125 608.445312 405.308594 C 608.054688 404.785156 607.636719 404.28125 607.195312 403.800781 C 606.753906 403.316406 606.289062 402.859375 605.804688 402.421875 C 605.316406 401.984375 604.808594 401.574219 604.28125 401.1875 C 603.753906 400.800781 603.210938 400.441406 602.648438 400.105469 C 602.085938 399.773438 601.507812 399.46875 600.914062 399.191406 C 600.324219 398.914062 599.71875 398.667969 599.101562 398.449219 C 598.484375 398.234375 597.859375 398.046875 597.226562 397.890625 C 596.589844 397.734375 595.949219 397.609375 595.300781 397.515625 C 594.65625 397.425781 594.003906 397.363281 593.351562 397.332031 C 592.699219 397.304688 592.046875 397.308594 591.394531 397.339844 C 590.742188 397.375 590.089844 397.441406 589.445312 397.542969 C 588.796875 397.640625 588.15625 397.769531 587.523438 397.929688 C 586.890625 398.09375 586.265625 398.285156 585.652344 398.507812 C 585.039062 398.730469 584.433594 398.980469 583.84375 399.261719 L 564.195312 408.671875 C 563.605469 408.957031 563.03125 409.265625 562.472656 409.605469 C 561.914062 409.945312 561.375 410.3125 560.851562 410.703125 C 560.328125 411.097656 559.824219 411.515625 559.34375 411.957031 C 558.863281 412.398438 558.402344 412.863281 557.964844 413.347656 C 557.53125 413.835938 557.117188 414.34375 556.730469 414.871094 C 556.34375 415.398438 555.984375 415.941406 555.652344 416.503906 C 555.316406 417.066406 555.011719 417.644531 554.738281 418.234375 C 554.460938 418.828125 554.214844 419.433594 553.996094 420.050781 C 553.777344 420.667969 553.59375 421.292969 553.4375 421.925781 C 553.28125 422.5625 553.15625 423.203125 553.0625 423.851562 C 552.96875 424.496094 552.910156 425.148438 552.878906 425.800781 C 552.851562 426.453125 552.855469 427.105469 552.890625 427.757812 C 552.925781 428.414062 552.992188 429.0625 553.089844 429.707031 C 553.1875 430.355469 553.316406 430.996094 553.480469 431.628906 C 553.640625 432.261719 553.832031 432.886719 554.054688 433.5 C 554.277344 434.113281 554.53125 434.71875 554.8125 435.308594 L 560.300781 446.769531 L 548.839844 452.261719 C 548.25 452.542969 547.675781 452.855469 547.117188 453.195312 C 546.558594 453.535156 546.015625 453.898438 545.492188 454.292969 C 544.972656 454.683594 544.46875 455.101562 543.988281 455.542969 C 543.503906 455.984375 543.046875 456.449219 542.609375 456.933594 C 542.171875 457.421875 541.761719 457.929688 541.375 458.457031 C 540.988281 458.984375 540.628906 459.527344 540.296875 460.089844 C 539.960938 460.652344 539.65625 461.230469 539.378906 461.820312 C 539.105469 462.414062 538.855469 463.019531 538.640625 463.636719 C 538.421875 464.25 538.234375 464.878906 538.082031 465.511719 C 537.925781 466.148438 537.800781 466.789062 537.707031 467.433594 C 537.613281 468.082031 537.554688 468.730469 537.523438 469.386719 C 537.496094 470.039062 537.496094 470.691406 537.53125 471.34375 C 537.566406 471.996094 537.632812 472.644531 537.730469 473.292969 C 537.832031 473.9375 537.960938 474.578125 538.121094 475.210938 C 538.285156 475.84375 538.476562 476.46875 538.699219 477.082031 C 538.921875 477.699219 539.171875 478.300781 539.453125 478.890625 L 548.863281 498.539062 C 549.148438 499.128906 549.457031 499.703125 549.796875 500.261719 C 550.136719 500.820312 550.503906 501.363281 550.894531 501.886719 C 551.285156 502.40625 551.703125 502.910156 552.144531 503.390625 C 552.585938 503.875 553.050781 504.332031 553.539062 504.769531 C 554.023438 505.207031 554.53125 505.617188 555.058594 506.003906 C 555.585938 506.390625 556.128906 506.75 556.691406 507.082031 C 557.253906 507.417969 557.832031 507.722656 558.425781 508 C 559.015625 508.273438 559.621094 508.523438 560.238281 508.738281 C 560.855469 508.957031 561.480469 509.144531 562.117188 509.296875 C 562.75 509.453125 563.390625 509.578125 564.039062 509.671875 C 564.683594 509.765625 565.335938 509.824219 565.988281 509.855469 C 566.640625 509.882812 567.292969 509.882812 567.945312 509.847656 C 568.597656 509.8125 569.25 509.746094 569.894531 509.648438 C 570.542969 509.546875 571.179688 509.417969 571.816406 509.257812 C 572.449219 509.09375 573.070312 508.902344 573.6875 508.679688 C 574.300781 508.457031 574.902344 508.207031 575.492188 507.925781 L 586.957031 502.433594 L 592.445312 513.898438 C 592.730469 514.488281 593.042969 515.0625 593.378906 515.621094 C 593.71875 516.179688 594.085938 516.71875 594.476562 517.242188 C 594.871094 517.765625 595.289062 518.269531 595.730469 518.75 C 596.171875 519.230469 596.636719 519.691406 597.121094 520.128906 C 597.609375 520.5625 598.113281 520.976562 598.640625 521.363281 C 599.167969 521.75 599.714844 522.109375 600.277344 522.441406 C 600.839844 522.773438 601.417969 523.082031 602.007812 523.355469 C 602.601562 523.632812 603.207031 523.878906 603.820312 524.097656 C 604.4375 524.316406 605.0625 524.5 605.699219 524.65625 C 606.332031 524.8125 606.972656 524.9375 607.621094 525.03125 C 608.269531 525.125 608.917969 525.183594 609.570312 525.214844 C 610.222656 525.242188 610.878906 525.238281 611.53125 525.207031 C 612.183594 525.171875 612.832031 525.105469 613.480469 525.003906 C 614.125 524.90625 614.765625 524.777344 615.398438 524.617188 C 616.03125 524.453125 616.65625 524.261719 617.269531 524.039062 C 617.882812 523.816406 618.488281 523.566406 619.078125 523.28125 L 638.726562 513.875 C 639.316406 513.589844 639.890625 513.28125 640.449219 512.941406 C 641.007812 512.601562 641.546875 512.234375 642.070312 511.84375 C 642.59375 511.449219 643.097656 511.035156 643.578125 510.589844 C 644.058594 510.148438 644.519531 509.6875 644.957031 509.199219 C 645.390625 508.710938 645.804688 508.207031 646.191406 507.679688 C 646.578125 507.152344 646.9375 506.605469 647.269531 506.042969 C 647.601562 505.480469 647.90625 504.90625 648.183594 504.3125 C 648.460938 503.71875 648.707031 503.117188 648.925781 502.5 C 649.144531 501.882812 649.328125 501.257812 649.484375 500.621094 C 649.640625 499.988281 649.765625 499.347656 649.859375 498.699219 C 649.953125 498.050781 650.011719 497.402344 650.042969 496.75 C 650.070312 496.097656 650.066406 495.441406 650.035156 494.789062 C 650 494.136719 649.933594 493.488281 649.832031 492.84375 C 649.734375 492.195312 649.605469 491.554688 649.445312 490.921875 C 649.28125 490.289062 649.089844 489.664062 648.867188 489.050781 C 648.644531 488.4375 648.394531 487.832031 648.109375 487.242188 L 642.621094 475.78125 L 654.085938 470.289062 C 654.675781 470.007812 655.25 469.695312 655.808594 469.355469 C 656.367188 469.015625 656.90625 468.652344 657.429688 468.257812 C 657.953125 467.867188 658.457031 467.449219 658.9375 467.007812 C 659.417969 466.566406 659.878906 466.101562 660.316406 465.617188 C 660.75 465.128906 661.164062 464.621094 661.550781 464.09375 C 661.9375 463.566406 662.296875 463.023438 662.628906 462.460938 C 662.960938 461.898438 663.265625 461.320312 663.542969 460.730469 C 663.820312 460.136719 664.066406 459.53125 664.285156 458.914062 C 664.5 458.300781 664.6875 457.671875 664.84375 457.039062 C 665 456.402344 665.125 455.761719 665.21875 455.117188 C 665.3125 454.46875 665.371094 453.820312 665.402344 453.164062 C 665.429688 452.511719 665.425781 451.859375 665.390625 451.207031 C 665.359375 450.554688 665.289062 449.90625 665.191406 449.257812 C 665.09375 448.613281 664.964844 447.972656 664.800781 447.339844 C 664.640625 446.707031 664.449219 446.082031 664.226562 445.46875 C 664.003906 444.851562 663.753906 444.25 663.46875 443.660156 L 654.0625 424.011719 C 653.777344 423.421875 653.464844 422.847656 653.128906 422.289062 C 652.789062 421.730469 652.421875 421.1875 652.03125 420.667969 C 651.636719 420.144531 651.21875 419.640625 650.777344 419.160156 C 650.335938 418.675781 649.875 418.21875 649.386719 417.78125 C 648.898438 417.34375 648.394531 416.933594 647.867188 416.546875 C 647.339844 416.160156 646.792969 415.800781 646.230469 415.46875 C 645.667969 415.132812 645.09375 414.828125 644.5 414.550781 C 643.90625 414.277344 643.304688 414.027344 642.6875 413.8125 C 642.070312 413.59375 641.445312 413.40625 640.808594 413.253906 C 640.175781 413.097656 639.535156 412.972656 638.886719 412.878906 C 638.238281 412.785156 637.589844 412.726562 636.9375 412.695312 C 636.285156 412.667969 635.628906 412.667969 634.976562 412.703125 C 634.324219 412.738281 633.675781 412.804688 633.03125 412.902344 C 632.382812 413.003906 631.742188 413.132812 631.109375 413.292969 C 630.476562 413.457031 629.851562 413.648438 629.238281 413.871094 C 628.625 414.09375 628.019531 414.34375 627.429688 414.625 Z M 647.097656 451.5 C 647.203125 451.71875 647.261719 451.945312 647.273438 452.183594 C 647.285156 452.425781 647.253906 452.660156 647.171875 452.886719 C 647.09375 453.113281 646.972656 453.316406 646.8125 453.492188 C 646.652344 453.671875 646.464844 453.8125 646.246094 453.917969 L 626.59375 463.328125 C 626.058594 463.585938 625.550781 463.890625 625.074219 464.25 C 624.597656 464.605469 624.160156 465.007812 623.761719 465.449219 C 623.363281 465.894531 623.011719 466.371094 622.707031 466.886719 C 622.40625 467.398438 622.152344 467.933594 621.957031 468.496094 C 621.757812 469.058594 621.617188 469.636719 621.53125 470.226562 C 621.445312 470.816406 621.421875 471.40625 621.453125 472.003906 C 621.484375 472.597656 621.574219 473.183594 621.722656 473.761719 C 621.871094 474.339844 622.070312 474.894531 622.328125 475.433594 L 631.738281 495.082031 C 631.84375 495.300781 631.902344 495.527344 631.914062 495.769531 C 631.925781 496.007812 631.894531 496.242188 631.8125 496.46875 C 631.734375 496.695312 631.613281 496.898438 631.453125 497.078125 C 631.292969 497.257812 631.105469 497.398438 630.886719 497.5 L 611.238281 506.910156 C 611.019531 507.015625 610.792969 507.074219 610.550781 507.085938 C 610.3125 507.097656 610.078125 507.066406 609.851562 506.984375 C 609.625 506.90625 609.421875 506.785156 609.242188 506.625 C 609.0625 506.464844 608.921875 506.277344 608.820312 506.058594 L 599.410156 486.410156 C 599.152344 485.871094 598.84375 485.363281 598.488281 484.886719 C 598.128906 484.410156 597.730469 483.972656 597.285156 483.574219 C 596.84375 483.175781 596.363281 482.824219 595.851562 482.523438 C 595.339844 482.21875 594.800781 481.96875 594.238281 481.769531 C 593.679688 481.570312 593.101562 481.429688 592.511719 481.34375 C 591.921875 481.261719 591.328125 481.234375 590.734375 481.265625 C 590.140625 481.296875 589.554688 481.386719 588.976562 481.535156 C 588.398438 481.683594 587.839844 481.886719 587.304688 482.144531 L 567.652344 491.550781 C 567.4375 491.65625 567.207031 491.714844 566.96875 491.726562 C 566.726562 491.742188 566.496094 491.707031 566.269531 491.628906 C 566.042969 491.546875 565.839844 491.425781 565.660156 491.265625 C 565.480469 491.105469 565.339844 490.917969 565.234375 490.699219 L 555.828125 471.050781 C 555.722656 470.832031 555.664062 470.605469 555.652344 470.367188 C 555.636719 470.125 555.671875 469.890625 555.75 469.664062 C 555.832031 469.4375 555.953125 469.234375 556.113281 469.058594 C 556.273438 468.878906 556.460938 468.738281 556.679688 468.632812 L 576.328125 459.222656 C 576.867188 458.964844 577.375 458.660156 577.851562 458.300781 C 578.328125 457.945312 578.765625 457.542969 579.164062 457.101562 C 579.5625 456.65625 579.910156 456.179688 580.214844 455.664062 C 580.519531 455.152344 580.769531 454.617188 580.96875 454.054688 C 581.167969 453.492188 581.308594 452.914062 581.394531 452.324219 C 581.476562 451.734375 581.503906 451.144531 581.472656 450.546875 C 581.4375 449.953125 581.347656 449.367188 581.203125 448.789062 C 581.054688 448.210938 580.851562 447.65625 580.59375 447.117188 L 571.183594 427.46875 C 571.082031 427.25 571.023438 427.023438 571.007812 426.78125 C 570.996094 426.542969 571.027344 426.308594 571.109375 426.082031 C 571.1875 425.851562 571.308594 425.648438 571.46875 425.472656 C 571.628906 425.292969 571.816406 425.148438 572.035156 425.046875 L 591.683594 415.636719 C 591.902344 415.53125 592.132812 415.472656 592.371094 415.460938 C 592.613281 415.449219 592.84375 415.484375 593.070312 415.5625 C 593.300781 415.644531 593.5 415.765625 593.679688 415.925781 C 593.859375 416.085938 594 416.273438 594.105469 416.492188 L 603.515625 436.140625 C 603.773438 436.679688 604.078125 437.1875 604.4375 437.664062 C 604.792969 438.140625 605.195312 438.578125 605.636719 438.976562 C 606.082031 439.375 606.558594 439.726562 607.070312 440.027344 C 607.585938 440.332031 608.121094 440.585938 608.683594 440.78125 C 609.246094 440.980469 609.820312 441.121094 610.410156 441.207031 C 611 441.289062 611.59375 441.316406 612.1875 441.285156 C 612.785156 441.253906 613.371094 441.164062 613.949219 441.015625 C 614.527344 440.867188 615.082031 440.664062 615.621094 440.40625 L 635.269531 431 C 635.488281 430.894531 635.714844 430.835938 635.957031 430.824219 C 636.195312 430.808594 636.429688 430.84375 636.65625 430.921875 C 636.882812 431.003906 637.085938 431.125 637.265625 431.285156 C 637.445312 431.445312 637.585938 431.632812 637.6875 431.851562 Z M 647.097656 451.5 " fill-opacity="1" fill-rule="nonzero"/></g></g></g><g clip-path="url(#2929600280)"><g clip-path="url(#fc56992652)"><g clip-path="url(#18f0d369d3)"><path fill="#ffb100" d="M 809.957031 385.992188 C 809.058594 386.40625 808.183594 386.867188 807.332031 387.367188 C 806.480469 387.871094 805.65625 388.414062 804.855469 388.996094 C 804.058594 389.578125 803.289062 390.199219 802.550781 390.859375 C 801.8125 391.515625 801.109375 392.210938 800.4375 392.9375 C 799.769531 393.664062 799.132812 394.421875 798.539062 395.210938 C 797.941406 396 797.386719 396.816406 796.871094 397.660156 C 796.351562 398.503906 795.878906 399.371094 795.449219 400.261719 C 795.015625 401.152344 794.628906 402.058594 794.285156 402.988281 C 793.945312 403.914062 793.648438 404.859375 793.398438 405.816406 C 793.148438 406.769531 792.945312 407.738281 792.789062 408.714844 C 792.632812 409.691406 792.523438 410.671875 792.464844 411.660156 C 792.40625 412.648438 792.394531 413.636719 792.429688 414.625 C 792.46875 415.613281 792.554688 416.597656 792.6875 417.578125 C 792.820312 418.558594 793 419.527344 793.230469 420.492188 C 793.457031 421.453125 793.730469 422.402344 794.054688 423.335938 C 794.375 424.273438 794.742188 425.191406 795.152344 426.089844 C 795.5625 426.988281 796.015625 427.867188 796.511719 428.722656 C 797.011719 429.578125 797.546875 430.40625 798.125 431.207031 C 798.703125 432.011719 799.320312 432.785156 799.972656 433.527344 C 800.625 434.269531 801.316406 434.976562 802.039062 435.652344 C 802.761719 436.328125 803.515625 436.964844 804.300781 437.566406 C 805.085938 438.167969 805.898438 438.730469 806.738281 439.25 C 807.578125 439.773438 808.441406 440.25 809.328125 440.6875 C 810.21875 441.125 811.125 441.519531 812.050781 441.867188 C 812.976562 442.214844 813.914062 442.519531 814.871094 442.773438 C 815.824219 443.03125 816.792969 443.238281 817.765625 443.402344 C 818.742188 443.5625 819.722656 443.679688 820.710938 443.742188 C 821.699219 443.808594 822.6875 443.828125 823.675781 443.796875 C 824.664062 443.765625 825.648438 443.6875 826.628906 443.558594 C 827.609375 443.433594 828.582031 443.257812 829.546875 443.035156 C 830.507812 442.8125 831.460938 442.542969 832.398438 442.230469 C 833.335938 441.914062 834.253906 441.554688 835.15625 441.148438 C 870.796875 423.269531 847.035156 370.125 809.957031 385.992188 Z M 827.640625 424.625 C 826.917969 424.949219 826.171875 425.203125 825.398438 425.382812 C 824.628906 425.5625 823.847656 425.667969 823.054688 425.695312 C 822.261719 425.722656 821.472656 425.671875 820.691406 425.546875 C 819.910156 425.417969 819.144531 425.21875 818.402344 424.941406 C 817.660156 424.664062 816.949219 424.320312 816.273438 423.90625 C 815.597656 423.492188 814.96875 423.015625 814.386719 422.476562 C 813.804688 421.941406 813.277344 421.351562 812.8125 420.710938 C 812.34375 420.070312 811.941406 419.390625 811.609375 418.671875 C 811.273438 417.957031 811.011719 417.210938 810.820312 416.441406 C 810.632812 415.671875 810.519531 414.890625 810.480469 414.097656 C 810.445312 413.308594 810.484375 412.519531 810.601562 411.734375 C 810.71875 410.953125 810.910156 410.1875 811.175781 409.441406 C 811.445312 408.691406 811.78125 407.980469 812.1875 407.296875 C 812.59375 406.617188 813.058594 405.984375 813.589844 405.394531 C 814.121094 404.804688 814.703125 404.273438 815.335938 403.796875 C 815.972656 403.320312 816.644531 402.910156 817.359375 402.566406 C 818.082031 402.242188 818.828125 401.988281 819.601562 401.808594 C 820.375 401.628906 821.15625 401.527344 821.945312 401.5 C 822.738281 401.472656 823.527344 401.523438 824.308594 401.652344 C 825.089844 401.777344 825.851562 401.980469 826.59375 402.257812 C 827.335938 402.53125 828.046875 402.878906 828.722656 403.292969 C 829.398438 403.707031 830.027344 404.183594 830.609375 404.71875 C 831.191406 405.257812 831.714844 405.84375 832.183594 406.484375 C 832.648438 407.125 833.050781 407.804688 833.386719 408.523438 C 833.71875 409.242188 833.984375 409.984375 834.171875 410.753906 C 834.363281 411.523438 834.476562 412.304688 834.511719 413.09375 C 834.550781 413.886719 834.507812 414.671875 834.390625 415.457031 C 834.277344 416.242188 834.082031 417.003906 833.816406 417.753906 C 833.550781 418.5 833.214844 419.210938 832.808594 419.890625 C 832.40625 420.574219 831.9375 421.207031 831.40625 421.796875 C 830.878906 422.386719 830.296875 422.917969 829.664062 423.394531 C 829.027344 423.871094 828.355469 424.28125 827.640625 424.625 Z M 827.640625 424.625 " fill-opacity="1" fill-rule="nonzero"/></g></g></g><g clip-path="url(#f0c8129e6c)"><g clip-path="url(#7459b96fe0)"><g clip-path="url(#53e478289e)"><path fill="#ffb100" d="M 740.027344 361.203125 C 703.941406 378.863281 729.03125 432.867188 765.574219 416 C 766.457031 415.570312 767.316406 415.101562 768.15625 414.589844 C 768.992188 414.082031 769.800781 413.53125 770.585938 412.941406 C 771.371094 412.347656 772.121094 411.722656 772.84375 411.058594 C 773.566406 410.394531 774.257812 409.699219 774.910156 408.96875 C 775.566406 408.238281 776.183594 407.476562 776.765625 406.6875 C 777.34375 405.898438 777.886719 405.082031 778.386719 404.238281 C 778.886719 403.394531 779.347656 402.527344 779.765625 401.640625 C 780.179688 400.753906 780.554688 399.847656 780.882812 398.921875 C 781.210938 398 781.496094 397.058594 781.730469 396.109375 C 781.96875 395.15625 782.160156 394.195312 782.304688 393.226562 C 782.449219 392.253906 782.542969 391.28125 782.59375 390.300781 C 782.644531 389.320312 782.644531 388.339844 782.597656 387.363281 C 782.550781 386.382812 782.457031 385.40625 782.316406 384.4375 C 782.175781 383.464844 781.988281 382.503906 781.753906 381.550781 C 781.519531 380.597656 781.238281 379.660156 780.910156 378.734375 C 780.585938 377.808594 780.214844 376.902344 779.800781 376.015625 C 779.386719 375.125 778.929688 374.257812 778.429688 373.414062 C 777.929688 372.570312 777.390625 371.75 776.8125 370.960938 C 776.234375 370.167969 775.621094 369.40625 774.96875 368.671875 C 774.3125 367.941406 773.628906 367.242188 772.90625 366.574219 C 772.1875 365.910156 771.433594 365.28125 770.652344 364.691406 C 769.871094 364.097656 769.0625 363.542969 768.226562 363.03125 C 767.390625 362.519531 766.53125 362.046875 765.652344 361.617188 C 764.769531 361.1875 763.867188 360.800781 762.949219 360.457031 C 762.03125 360.117188 761.097656 359.820312 760.148438 359.566406 C 759.199219 359.316406 758.242188 359.109375 757.273438 358.953125 C 756.304688 358.792969 755.332031 358.683594 754.355469 358.621094 C 753.375 358.558594 752.394531 358.542969 751.414062 358.574219 C 750.433594 358.605469 749.457031 358.683594 748.484375 358.8125 C 747.511719 358.9375 746.546875 359.113281 745.59375 359.332031 C 744.636719 359.554688 743.695312 359.820312 742.765625 360.132812 C 741.835938 360.445312 740.921875 360.804688 740.027344 361.203125 Z M 757.488281 399.738281 C 756.765625 400.042969 756.023438 400.277344 755.257812 400.4375 C 754.492188 400.597656 753.71875 400.683594 752.9375 400.691406 C 752.15625 400.703125 751.378906 400.636719 750.609375 400.496094 C 749.839844 400.355469 749.089844 400.140625 748.363281 399.855469 C 747.636719 399.566406 746.941406 399.214844 746.28125 398.792969 C 745.625 398.371094 745.011719 397.890625 744.445312 397.351562 C 743.878906 396.8125 743.371094 396.222656 742.917969 395.582031 C 742.46875 394.941406 742.082031 394.265625 741.761719 393.554688 C 741.441406 392.839844 741.195312 392.101562 741.019531 391.339844 C 740.84375 390.578125 740.742188 389.804688 740.714844 389.023438 C 740.6875 388.242188 740.738281 387.464844 740.859375 386.691406 C 740.984375 385.917969 741.183594 385.167969 741.453125 384.433594 C 741.722656 383.699219 742.0625 382.996094 742.46875 382.328125 C 742.878906 381.660156 743.34375 381.039062 743.871094 380.460938 C 744.402344 379.886719 744.980469 379.363281 745.609375 378.898438 C 746.238281 378.433594 746.90625 378.035156 747.613281 377.699219 C 748.339844 377.355469 749.09375 377.085938 749.871094 376.890625 C 750.652344 376.699219 751.445312 376.582031 752.246094 376.546875 C 753.050781 376.511719 753.847656 376.554688 754.644531 376.679688 C 755.4375 376.804688 756.210938 377.003906 756.96875 377.28125 C 757.722656 377.558594 758.441406 377.910156 759.125 378.332031 C 759.808594 378.753906 760.445312 379.238281 761.03125 379.789062 C 761.621094 380.335938 762.148438 380.9375 762.613281 381.59375 C 763.082031 382.246094 763.480469 382.941406 763.808594 383.675781 C 764.136719 384.410156 764.390625 385.167969 764.566406 385.953125 C 764.746094 386.734375 764.84375 387.53125 764.859375 388.332031 C 764.878906 389.136719 764.820312 389.933594 764.679688 390.726562 C 764.539062 391.519531 764.320312 392.289062 764.027344 393.035156 C 763.730469 393.785156 763.367188 394.496094 762.929688 395.171875 C 762.492188 395.847656 761.996094 396.472656 761.433594 397.046875 C 760.871094 397.625 760.257812 398.136719 759.59375 398.589844 C 758.929688 399.042969 758.230469 399.425781 757.488281 399.738281 Z M 757.488281 399.738281 " fill-opacity="1" fill-rule="nonzero"/></g></g></g><g clip-path="url(#a5d83e767c)"><g clip-path="url(#8800d1170a)"><g clip-path="url(#8c03cf0b84)"><path fill="#ffb100" d="M 834.417969 316.007812 C 798.683594 334.25 823.15625 387.378906 860.144531 370.714844 C 895.792969 352.914062 870.550781 300.144531 834.417969 316.007812 Z M 852.039062 354.460938 C 851.320312 354.785156 850.578125 355.035156 849.808594 355.210938 C 849.039062 355.386719 848.261719 355.488281 847.472656 355.511719 C 846.683594 355.535156 845.898438 355.480469 845.121094 355.351562 C 844.34375 355.222656 843.585938 355.019531 842.847656 354.738281 C 842.109375 354.460938 841.40625 354.113281 840.734375 353.699219 C 840.066406 353.28125 839.441406 352.804688 838.867188 352.265625 C 838.289062 351.726562 837.769531 351.136719 837.308594 350.496094 C 836.847656 349.859375 836.457031 349.179688 836.128906 348.460938 C 835.800781 347.746094 835.542969 347 835.363281 346.234375 C 835.179688 345.46875 835.074219 344.6875 835.042969 343.902344 C 835.011719 343.113281 835.058594 342.328125 835.183594 341.550781 C 835.308594 340.769531 835.503906 340.011719 835.777344 339.269531 C 836.050781 338.53125 836.390625 337.824219 836.800781 337.152344 C 837.214844 336.476562 837.683594 335.851562 838.21875 335.269531 C 838.753906 334.6875 839.339844 334.167969 839.976562 333.699219 C 840.609375 333.234375 841.285156 332.835938 842 332.5 C 842.722656 332.179688 843.464844 331.929688 844.234375 331.753906 C 845.003906 331.578125 845.78125 331.476562 846.570312 331.453125 C 847.359375 331.429688 848.140625 331.480469 848.917969 331.613281 C 849.699219 331.742188 850.457031 331.945312 851.195312 332.222656 C 851.933594 332.503906 852.636719 332.847656 853.304688 333.265625 C 853.976562 333.683594 854.597656 334.160156 855.175781 334.699219 C 855.75 335.234375 856.269531 335.824219 856.730469 336.464844 C 857.191406 337.105469 857.585938 337.785156 857.914062 338.5 C 858.242188 339.21875 858.496094 339.960938 858.679688 340.730469 C 858.863281 341.496094 858.96875 342.273438 859 343.0625 C 859.027344 343.851562 858.980469 344.632812 858.859375 345.414062 C 858.734375 346.191406 858.539062 346.953125 858.265625 347.691406 C 857.992188 348.433594 857.652344 349.140625 857.238281 349.8125 C 856.828125 350.484375 856.355469 351.113281 855.824219 351.691406 C 855.289062 352.273438 854.703125 352.796875 854.066406 353.261719 C 853.429688 353.730469 852.753906 354.128906 852.039062 354.460938 Z M 852.039062 354.460938 " fill-opacity="1" fill-rule="nonzero"/></g></g></g><g clip-path="url(#7239fc075b)"><g clip-path="url(#036e84b4ff)"><g clip-path="url(#86ac90b312)"><path fill="#ffb100" d="M 790.144531 346.566406 C 791.035156 346.136719 791.902344 345.664062 792.75 345.148438 C 793.59375 344.636719 794.414062 344.082031 795.203125 343.488281 C 795.996094 342.894531 796.753906 342.261719 797.484375 341.59375 C 798.214844 340.925781 798.910156 340.226562 799.574219 339.488281 C 800.234375 338.753906 800.859375 337.988281 801.445312 337.191406 C 802.03125 336.394531 802.578125 335.574219 803.085938 334.722656 C 803.59375 333.875 804.058594 333 804.480469 332.105469 C 804.902344 331.210938 805.28125 330.300781 805.613281 329.367188 C 805.945312 328.4375 806.234375 327.492188 806.476562 326.53125 C 806.714844 325.570312 806.910156 324.601562 807.058594 323.625 C 807.203125 322.644531 807.304688 321.664062 807.355469 320.675781 C 807.40625 319.6875 807.410156 318.699219 807.363281 317.710938 C 807.320312 316.722656 807.226562 315.738281 807.085938 314.757812 C 806.945312 313.78125 806.757812 312.808594 806.523438 311.847656 C 806.289062 310.886719 806.007812 309.941406 805.679688 309.007812 C 805.355469 308.074219 804.980469 307.15625 804.566406 306.261719 C 804.148438 305.363281 803.691406 304.488281 803.191406 303.632812 C 802.6875 302.78125 802.148438 301.957031 801.566406 301.15625 C 800.984375 300.355469 800.363281 299.585938 799.707031 298.84375 C 799.050781 298.105469 798.359375 297.398438 797.632812 296.726562 C 796.910156 296.054688 796.152344 295.417969 795.367188 294.816406 C 794.578125 294.21875 793.761719 293.660156 792.921875 293.140625 C 792.082031 292.621094 791.214844 292.140625 790.328125 291.707031 C 789.4375 291.269531 788.53125 290.878906 787.605469 290.53125 C 786.679688 290.183594 785.738281 289.882812 784.78125 289.625 C 783.828125 289.371094 782.859375 289.160156 781.886719 289 C 780.910156 288.839844 779.925781 288.722656 778.941406 288.65625 C 777.953125 288.589844 776.964844 288.574219 775.976562 288.601562 C 774.988281 288.632812 774.003906 288.710938 773.019531 288.835938 C 772.039062 288.960938 771.066406 289.132812 770.101562 289.355469 C 769.136719 289.574219 768.1875 289.839844 767.25 290.152344 C 766.308594 290.464844 765.386719 290.824219 764.484375 291.226562 C 763.59375 291.65625 762.726562 292.128906 761.878906 292.640625 C 761.035156 293.15625 760.21875 293.710938 759.425781 294.304688 C 758.632812 294.898438 757.875 295.53125 757.144531 296.199219 C 756.414062 296.863281 755.71875 297.566406 755.058594 298.300781 C 754.394531 299.039062 753.769531 299.804688 753.183594 300.601562 C 752.597656 301.398438 752.050781 302.21875 751.542969 303.070312 C 751.035156 303.917969 750.570312 304.789062 750.148438 305.683594 C 749.726562 306.582031 749.351562 307.492188 749.015625 308.425781 C 748.683594 309.355469 748.394531 310.300781 748.15625 311.261719 C 747.914062 312.21875 747.71875 313.191406 747.570312 314.167969 C 747.425781 315.144531 747.324219 316.128906 747.273438 317.117188 C 747.222656 318.105469 747.21875 319.09375 747.265625 320.082031 C 747.308594 321.070312 747.402344 322.054688 747.542969 323.03125 C 747.683594 324.011719 747.871094 324.980469 748.105469 325.945312 C 748.339844 326.90625 748.621094 327.851562 748.949219 328.785156 C 749.277344 329.71875 749.648438 330.632812 750.0625 331.53125 C 750.480469 332.429688 750.9375 333.304688 751.441406 334.15625 C 751.941406 335.011719 752.484375 335.835938 753.066406 336.636719 C 753.644531 337.4375 754.265625 338.207031 754.921875 338.949219 C 755.578125 339.6875 756.269531 340.394531 756.996094 341.066406 C 757.71875 341.738281 758.476562 342.375 759.265625 342.972656 C 760.050781 343.574219 760.867188 344.132812 761.707031 344.652344 C 762.550781 345.171875 763.414062 345.652344 764.300781 346.085938 C 765.191406 346.523438 766.097656 346.914062 767.023438 347.261719 C 767.949219 347.609375 768.890625 347.910156 769.847656 348.164062 C 770.804688 348.421875 771.769531 348.628906 772.746094 348.792969 C 773.71875 348.953125 774.703125 349.070312 775.6875 349.136719 C 776.675781 349.203125 777.664062 349.21875 778.652344 349.191406 C 779.640625 349.160156 780.625 349.082031 781.609375 348.957031 C 782.589844 348.832031 783.5625 348.660156 784.527344 348.4375 C 785.492188 348.21875 786.441406 347.953125 787.382812 347.640625 C 788.320312 347.328125 789.242188 346.96875 790.144531 346.566406 Z M 765.894531 314.707031 C 766.320312 313.589844 766.894531 312.554688 767.617188 311.605469 C 768.34375 310.65625 769.1875 309.832031 770.15625 309.128906 C 771.121094 308.429688 772.167969 307.878906 773.296875 307.484375 C 774.421875 307.089844 775.582031 306.863281 776.777344 306.808594 C 777.96875 306.75 779.144531 306.867188 780.304688 307.15625 C 781.460938 307.441406 782.554688 307.890625 783.585938 308.5 C 784.613281 309.105469 785.53125 309.847656 786.34375 310.726562 C 787.152344 311.601562 787.820312 312.578125 788.347656 313.652344 C 788.664062 314.382812 788.910156 315.140625 789.085938 315.921875 C 789.261719 316.699219 789.363281 317.488281 789.390625 318.289062 C 789.417969 319.085938 789.371094 319.882812 789.25 320.671875 C 789.128906 321.460938 788.933594 322.234375 788.667969 322.988281 C 788.40625 323.742188 788.070312 324.464844 787.671875 325.15625 C 787.269531 325.847656 786.808594 326.496094 786.289062 327.101562 C 785.765625 327.707031 785.195312 328.257812 784.570312 328.757812 C 783.945312 329.253906 783.277344 329.691406 782.574219 330.066406 C 781.472656 330.5625 780.320312 330.890625 779.125 331.046875 C 777.925781 331.207031 776.730469 331.191406 775.539062 330.996094 C 774.347656 330.804688 773.207031 330.445312 772.121094 329.914062 C 771.035156 329.386719 770.046875 328.714844 769.160156 327.894531 C 768.269531 327.078125 767.519531 326.148438 766.902344 325.109375 C 766.289062 324.070312 765.835938 322.964844 765.546875 321.792969 C 765.253906 320.617188 765.140625 319.429688 765.199219 318.222656 C 765.261719 317.015625 765.492188 315.84375 765.894531 314.707031 Z M 765.894531 314.707031 " fill-opacity="1" fill-rule="nonzero"/></g></g></g><g clip-path="url(#d70d14bedc)"><g clip-path="url(#54d280a9dd)"><g clip-path="url(#36f3ef4ee4)"><path fill="#ffb100" d="M 996.308594 450.914062 C 986.359375 397.671875 960.1875 359.175781 919.359375 308.429688 C 878.355469 257.160156 802.367188 195.625 734.71875 246.664062 C 701.265625 269.3125 667.554688 308.96875 628.425781 315.628906 C 606.378906 320.085938 584.578125 325.460938 563.011719 330.574219 C 439.777344 359.605469 481.632812 524.441406 520.417969 617.019531 C 546.609375 678.878906 601.460938 714.253906 649.722656 647.96875 C 664.148438 627.421875 675.785156 605.398438 684.628906 581.898438 C 687.40625 574.152344 691.09375 566.867188 695.683594 560.035156 C 700.273438 553.207031 705.628906 547.042969 711.75 541.539062 C 749.472656 510.222656 800.414062 487.367188 851.589844 504.085938 C 900.386719 521.511719 1005.019531 536.261719 996.308594 450.914062 Z M 943.152344 498.382812 C 886.546875 507.199219 835.472656 466.890625 782.261719 484.445312 C 733.328125 499.078125 687.242188 524.335938 667.757812 575.195312 C 659.480469 597.25 648.589844 617.929688 635.089844 637.230469 C 549.121094 750.183594 493.871094 491.320312 499.640625 444.230469 C 502.527344 350.757812 555.550781 350.609375 631.992188 333.429688 C 658.351562 329.289062 686.71875 309.359375 709.519531 289.425781 C 746.183594 257.753906 782.636719 229.089844 832.09375 256.648438 C 888.40625 278.472656 1049.507812 481.726562 943.152344 498.382812 Z M 943.152344 498.382812 " fill-opacity="1" fill-rule="nonzero"/></g></g></g><path fill="#ffb100" d="M 392.359375 248.269531 C 392.359375 248.269531 284.566406 406.425781 340.65625 597.621094 C 347.09375 594.300781 353.820312 591.265625 360.257812 587.945312 C 342.339844 486.839844 364.644531 345.691406 429.179688 271.957031 C 417.042969 263.976562 404.867188 256.289062 392.359375 248.269531 Z M 392.359375 248.269531 " fill-opacity="1" fill-rule="evenodd"/><path fill="#231f20" d="M 336.125 608.164062 L 333.636719 599.644531 C 277.253906 407.4375 385.195312 245.851562 386.289062 244.261719 L 390.3125 238.378906 L 406.109375 248.488281 C 415.25 254.300781 424.246094 260.042969 433.238281 265.964844 L 440.148438 270.515625 L 434.738281 276.6875 C 368.738281 352.121094 350.824219 492.726562 367.460938 586.714844 L 368.375 591.914062 L 363.65625 594.371094 C 360.367188 596.070312 357.003906 597.691406 353.636719 599.316406 C 350.421875 600.871094 347.203125 602.421875 344.058594 604.046875 Z M 394.664062 258.34375 C 376.601562 288.277344 301.898438 425.816406 345.339844 587.222656 C 345.996094 586.898438 346.617188 586.609375 347.277344 586.28125 C 348.921875 585.488281 350.566406 584.695312 352.175781 583.898438 C 336.929688 489.257812 354.953125 352.121094 418.359375 273.511719 C 411.667969 269.179688 404.976562 264.882812 398.175781 260.546875 Z M 394.664062 258.34375 " fill-opacity="1" fill-rule="nonzero"/><path fill="#ffb100" d="M 1053.59375 248.269531 C 1053.59375 248.269531 1161.714844 406.425781 1105.625 597.621094 C 1099.191406 594.300781 1092.460938 591.265625 1086.027344 587.945312 C 1103.945312 486.839844 1081.640625 345.691406 1017.101562 271.957031 C 1029.277344 263.976562 1041.457031 256.289062 1053.59375 248.269531 Z M 1053.59375 248.269531 " fill-opacity="1" fill-rule="evenodd"/><path fill="#231f20" d="M 1110.160156 608.164062 L 1102.226562 604.046875 C 1099.082031 602.421875 1095.863281 600.871094 1092.644531 599.316406 C 1089.28125 597.691406 1085.917969 596.070312 1082.625 594.371094 L 1077.910156 591.914062 L 1078.824219 586.714844 C 1095.460938 492.726562 1077.582031 352.121094 1011.582031 276.6875 L 1006.171875 270.515625 L 1013.082031 265.964844 C 1019.1875 261.921875 1025.332031 257.984375 1031.4375 254.046875 C 1037.46875 250.148438 1043.539062 246.25 1049.574219 242.277344 L 1055.605469 238.304688 L 1059.664062 244.261719 C 1060.761719 245.886719 1169.066406 407.4375 1112.683594 599.679688 Z M 1094.144531 583.9375 C 1095.789062 584.730469 1097.398438 585.523438 1099.042969 586.320312 C 1099.703125 586.644531 1100.324219 586.933594 1100.980469 587.257812 C 1144.382812 425.960938 1069.574219 288.496094 1051.363281 258.417969 C 1047.378906 261.015625 1043.394531 263.582031 1039.40625 266.144531 C 1035.605469 268.601562 1031.765625 271.054688 1027.960938 273.546875 C 1091.367188 352.15625 1109.355469 489.296875 1094.144531 583.9375 Z M 1094.144531 583.9375 " fill-opacity="1" fill-rule="nonzero"/><path fill="#01c3dc" d="M 1006.316406 290.988281 C 1022.550781 311.351562 1078.640625 257.296875 1065.113281 238.269531 C 910.699219 1.035156 535.65625 1.359375 381.246094 238.269531 C 367.714844 257.296875 423.804688 311.351562 440.039062 290.988281 C 596.792969 108.820312 855.269531 108.496094 1006.316406 290.988281 Z M 1006.316406 290.988281 " fill-opacity="1" fill-rule="evenodd"/><path fill="#231f20" d="M 430.277344 302.796875 C 422.417969 302.796875 413.019531 299.074219 402.964844 291.710938 C 384.792969 278.347656 363.402344 250.835938 375.246094 234.117188 C 449 120.953125 579.167969 53.25 723.304688 53.25 C 723.34375 53.25 723.417969 53.25 723.453125 53.25 C 867.445312 53.285156 997.46875 120.988281 1071.253906 234.371094 C 1082.957031 250.796875 1061.566406 278.347656 1043.394531 291.710938 C 1025.332031 304.960938 1009.351562 306.40625 1000.613281 295.5 C 929.898438 210.066406 833.328125 162.441406 728.71875 161.464844 C 727.585938 161.464844 726.449219 161.464844 725.355469 161.464844 C 619.390625 161.464844 520.152344 209.019531 445.597656 295.679688 C 441.796875 300.449219 436.53125 302.796875 430.277344 302.796875 Z M 725.5 147.023438 C 726.597656 147.023438 727.730469 147.023438 728.828125 147.023438 C 837.863281 148.070312 938.414062 197.574219 1011.949219 286.402344 L 1012.019531 286.511719 C 1015.53125 290.914062 1026.207031 286.292969 1034.617188 280.082031 C 1051.949219 267.335938 1063.101562 248.054688 1059.078125 242.386719 C 987.851562 132.976562 862.433594 67.726562 723.417969 67.691406 C 723.378906 67.691406 723.304688 67.691406 723.269531 67.691406 C 584.140625 67.691406 458.578125 132.90625 387.351562 242.167969 C 383.183594 248.054688 394.296875 267.371094 411.667969 280.082031 C 420.078125 286.257812 430.753906 290.914062 434.261719 286.511719 C 510.71875 197.648438 616.648438 147.023438 725.5 147.023438 Z M 725.5 147.023438 " fill-opacity="1" fill-rule="nonzero"/><path fill="#01c3dc" d="M 486.292969 465.175781 C 495.4375 514.570312 504.539062 563.933594 513.679688 613.003906 C 523.152344 662.398438 532.257812 711.761719 541.398438 761.15625 C 548.820312 799.863281 442.746094 805.207031 435.652344 768.160156 C 427.207031 722.773438 418.761719 677.421875 410.3125 632.03125 C 401.867188 586.644531 393.421875 540.929688 384.972656 495.578125 C 377.84375 458.820312 478.871094 426.140625 486.292969 465.175781 Z M 486.292969 465.175781 " fill-opacity="1" fill-rule="evenodd"/><path fill="#231f20" d="M 487.574219 800.371094 C 475.910156 800.371094 464.574219 798.710938 455.472656 795.566406 C 440.003906 790.222656 430.644531 781.195312 428.414062 769.496094 L 403.074219 633.332031 C 398.796875 610.332031 394.519531 587.222656 390.238281 564.113281 C 386.070312 541.652344 381.902344 519.230469 377.734375 496.84375 C 375.539062 485.394531 380.769531 473.878906 392.871094 463.550781 C 412.179688 447.121094 450.386719 434.628906 474.375 442.933594 C 484.796875 446.542969 491.558594 453.980469 493.460938 463.839844 L 493.9375 466.511719 C 502.894531 515.003906 511.851562 563.535156 520.8125 611.703125 C 530.28125 661.0625 539.53125 711.289062 548.527344 759.855469 C 550.390625 769.535156 546.882812 778.777344 538.65625 785.746094 C 526.882812 795.785156 506.84375 800.371094 487.574219 800.371094 Z M 456.96875 454.738281 C 439.527344 454.738281 416.347656 462.648438 402.453125 474.492188 C 396.929688 479.183594 390.640625 486.441406 392.140625 494.171875 C 396.308594 516.59375 400.476562 539.054688 404.644531 561.476562 C 408.925781 584.585938 413.203125 607.660156 417.480469 630.660156 L 442.820312 766.789062 C 444.355469 774.769531 453.167969 779.390625 460.332031 781.882812 C 482.417969 789.5 515.875 786.035156 529.183594 774.734375 C 534.890625 769.894531 534.78125 765.382812 534.195312 762.421875 C 525.199219 713.816406 515.949219 663.628906 506.476562 614.265625 C 497.519531 566.027344 488.5625 517.53125 479.601562 469.039062 L 479.128906 466.4375 C 478.542969 463.371094 476.898438 459.035156 469.585938 456.507812 C 465.964844 455.316406 461.6875 454.738281 456.96875 454.738281 Z M 456.96875 454.738281 " fill-opacity="1" fill-rule="nonzero"/><path fill="#01c3dc" d="M 960.027344 465.175781 C 950.921875 514.570312 941.78125 563.933594 932.675781 613.003906 C 923.207031 662.398438 914.101562 711.761719 904.960938 761.15625 C 897.535156 799.863281 1003.609375 805.207031 1010.703125 768.160156 C 1019.152344 722.773438 1027.597656 677.421875 1036.042969 632.03125 C 1044.488281 586.644531 1052.9375 540.929688 1061.382812 495.578125 C 1068.476562 458.820312 967.449219 426.140625 960.027344 465.175781 Z M 960.027344 465.175781 " fill-opacity="1" fill-rule="evenodd"/><path fill="#231f20" d="M 958.710938 800.371094 C 939.476562 800.371094 919.4375 795.785156 907.59375 785.746094 C 899.363281 778.742188 895.855469 769.535156 897.757812 759.820312 C 906.714844 711.289062 916 661.101562 925.472656 611.667969 C 934.578125 562.667969 943.71875 513.273438 952.824219 463.910156 L 952.824219 463.875 C 954.722656 453.980469 961.488281 446.578125 971.910156 442.96875 C 995.933594 434.664062 1034.140625 447.191406 1053.410156 463.585938 C 1065.550781 473.914062 1070.78125 485.433594 1068.550781 496.914062 C 1064.199219 520.242188 1059.847656 543.675781 1055.496094 567.109375 C 1051.402344 589.207031 1047.304688 611.304688 1043.210938 633.332031 L 1017.871094 769.460938 C 1015.605469 781.195312 1006.28125 790.222656 990.8125 795.566406 C 981.746094 798.710938 970.375 800.371094 958.710938 800.371094 Z M 967.191406 466.476562 C 958.050781 515.871094 948.945312 565.230469 939.84375 614.265625 C 930.371094 663.664062 921.121094 713.855469 912.125 762.421875 C 911.542969 765.417969 911.429688 769.929688 917.136719 774.769531 C 930.445312 786.070312 963.902344 789.539062 985.988281 781.917969 C 993.117188 779.464844 1001.964844 774.839844 1003.5 766.789062 L 1028.839844 630.695312 C 1032.933594 608.671875 1037.03125 586.570312 1041.125 564.472656 C 1045.476562 541.039062 1049.828125 517.570312 1054.179688 494.207031 C 1055.679688 486.40625 1049.390625 479.183594 1043.867188 474.453125 C 1026.207031 459.398438 993.554688 450.695312 976.734375 456.507812 C 969.421875 459.074219 967.777344 463.441406 967.191406 466.476562 Z M 967.191406 466.476562 " fill-opacity="1" fill-rule="nonzero"/><path fill="#ffb100" d="M 384.9375 495.542969 C 370.75 498.214844 361.28125 511.574219 363.984375 525.585938 L 405.558594 747.796875 C 407.9375 761.480469 421.792969 770.832031 435.617188 768.160156 Z M 384.9375 495.542969 " fill-opacity="1" fill-rule="evenodd"/><path fill="#231f20" d="M 430.898438 775.816406 C 424.246094 775.816406 417.625 773.792969 412.03125 769.96875 C 404.683594 764.949219 399.820312 757.507812 398.355469 748.988281 L 356.820312 526.847656 C 355.136719 518.21875 357.039062 509.445312 362.121094 502.148438 C 367.167969 494.929688 374.808594 490.054688 383.585938 488.394531 L 390.824219 487.019531 L 444.136719 773.792969 L 437.042969 775.167969 C 434.996094 775.601562 432.945312 775.816406 430.898438 775.816406 Z M 379.34375 505.398438 C 377.332031 506.699219 375.539062 508.398438 374.152344 510.417969 C 371.300781 514.464844 370.238281 519.375 371.1875 524.210938 L 412.761719 746.460938 C 413.566406 751.191406 416.273438 755.269531 420.367188 758.085938 C 422.34375 759.460938 424.574219 760.398438 426.878906 760.902344 Z M 379.34375 505.398438 " fill-opacity="1" fill-rule="nonzero"/><path fill="#ffb100" d="M 1061.382812 495.542969 C 1075.570312 498.214844 1085.039062 511.574219 1082.335938 525.585938 L 1040.761719 747.796875 C 1038.382812 761.480469 1024.527344 770.832031 1010.703125 768.160156 Z M 1061.382812 495.542969 " fill-opacity="1" fill-rule="evenodd"/><path fill="#231f20" d="M 1015.382812 775.816406 C 1013.335938 775.816406 1011.289062 775.636719 1009.277344 775.238281 L 1002.183594 773.867188 L 1055.496094 487.09375 L 1062.734375 488.464844 C 1071.511719 490.125 1079.117188 495 1084.199219 502.222656 C 1089.28125 509.480469 1091.183594 518.289062 1089.5 526.957031 L 1047.964844 749.132812 C 1046.5 757.546875 1041.636719 764.984375 1034.289062 770.003906 C 1028.695312 773.792969 1022.039062 775.816406 1015.382812 775.816406 Z M 1066.976562 505.398438 L 1019.480469 760.902344 C 1021.785156 760.398438 1023.976562 759.421875 1025.988281 758.085938 C 1030.082031 755.308594 1032.789062 751.191406 1033.558594 746.570312 L 1075.132812 524.25 C 1076.59375 516.738281 1073.121094 509.40625 1066.976562 505.398438 Z M 1066.976562 505.398438 " fill-opacity="1" fill-rule="nonzero"/><path fill="#ff47f9" d="M 367.019531 541.582031 C 342.339844 561.261719 329.871094 601.628906 337.625 645.03125 C 345.742188 688.398438 372.433594 722.125 402.488281 731.800781 Z M 367.019531 541.582031 " fill-opacity="1" fill-rule="evenodd"/><path fill="#231f20" d="M 411.921875 742.378906 L 400.222656 738.625 C 366.765625 727.863281 338.71875 690.78125 330.417969 646.332031 C 322.339844 601.230469 334.917969 557.9375 362.414062 535.949219 L 371.992188 528.328125 Z M 362.378906 556.457031 C 345.8125 576.894531 338.828125 610.152344 344.828125 643.769531 C 351.117188 677.457031 369.691406 706.234375 392.800781 719.558594 Z M 362.378906 556.457031 " fill-opacity="1" fill-rule="nonzero"/><path fill="#ff47f9" d="M 1079.300781 541.582031 C 1103.980469 561.261719 1116.449219 601.628906 1108.367188 645.03125 C 1100.578125 688.398438 1073.886719 722.125 1043.832031 731.800781 Z M 1079.300781 541.582031 " fill-opacity="1" fill-rule="evenodd"/><path fill="#231f20" d="M 1034.398438 742.378906 L 1074.328125 528.328125 L 1083.871094 535.949219 C 1111.511719 558.011719 1123.945312 601.339844 1115.535156 646.332031 C 1107.5625 690.707031 1079.664062 727.828125 1046.0625 738.625 Z M 1083.941406 556.457031 L 1053.519531 719.558594 C 1076.667969 706.234375 1095.09375 677.457031 1101.128906 643.769531 C 1107.417969 610.152344 1100.542969 576.929688 1083.941406 556.457031 Z M 1083.941406 556.457031 " fill-opacity="1" fill-rule="nonzero"/></svg>