<svg xmlns="http://www.w3.org/2000/svg" xmlns:xlink="http://www.w3.org/1999/xlink" width="1920" zoomAndPan="magnify" viewBox="0 0 1440 809.999993" height="1080" preserveAspectRatio="xMidYMid meet" version="1.0"><defs><clipPath id="63c0f1c835"><path d="M 544 397 L 668 397 L 668 522 L 544 522 Z M 544 397 " clip-rule="nonzero"/></clipPath><clipPath id="4b74c3b580"><path d="M 388.761719 390.527344 L 881.871094 154.398438 L 1050.640625 506.84375 L 557.53125 742.972656 Z M 388.761719 390.527344 " clip-rule="nonzero"/></clipPath><clipPath id="775fbc0d04"><path d="M 388.761719 390.527344 L 881.871094 154.398438 L 1050.640625 506.84375 L 557.53125 742.972656 Z M 388.761719 390.527344 " clip-rule="nonzero"/></clipPath><clipPath id="dc82b3cc99"><path d="M 789 384 L 849 384 L 849 443 L 789 443 Z M 789 384 " clip-rule="nonzero"/></clipPath><clipPath id="22eaf79b86"><path d="M 388.761719 390.527344 L 881.871094 154.398438 L 1050.640625 506.84375 L 557.53125 742.972656 Z M 388.761719 390.527344 " clip-rule="nonzero"/></clipPath><clipPath id="6ec92a3311"><path d="M 388.761719 390.527344 L 881.871094 154.398438 L 1050.640625 506.84375 L 557.53125 742.972656 Z M 388.761719 390.527344 " clip-rule="nonzero"/></clipPath><clipPath id="0f149bb903"><path d="M 722 360 L 781 360 L 781 419 L 722 419 Z M 722 360 " clip-rule="nonzero"/></clipPath><clipPath id="62a49766b3"><path d="M 388.761719 390.527344 L 881.871094 154.398438 L 1050.640625 506.84375 L 557.53125 742.972656 Z M 388.761719 390.527344 " clip-rule="nonzero"/></clipPath><clipPath id="a04a504615"><path d="M 388.761719 390.527344 L 881.871094 154.398438 L 1050.640625 506.84375 L 557.53125 742.972656 Z M 388.761719 390.527344 " clip-rule="nonzero"/></clipPath><clipPath id="5ee60e3627"><path d="M 813 316 L 872 316 L 872 376 L 813 376 Z M 813 316 " clip-rule="nonzero"/></clipPath><clipPath id="c6966a52f6"><path d="M 388.761719 390.527344 L 881.871094 154.398438 L 1050.640625 506.84375 L 557.53125 742.972656 Z M 388.761719 390.527344 " clip-rule="nonzero"/></clipPath><clipPath id="e940e38fba"><path d="M 388.761719 390.527344 L 881.871094 154.398438 L 1050.640625 506.84375 L 557.53125 742.972656 Z M 388.761719 390.527344 " clip-rule="nonzero"/></clipPath><clipPath id="4153caa352"><path d="M 746 293 L 805 293 L 805 352 L 746 352 Z M 746 293 " clip-rule="nonzero"/></clipPath><clipPath id="cac8a1b433"><path d="M 388.761719 390.527344 L 881.871094 154.398438 L 1050.640625 506.84375 L 557.53125 742.972656 Z M 388.761719 390.527344 " clip-rule="nonzero"/></clipPath><clipPath id="816a058e2a"><path d="M 388.761719 390.527344 L 881.871094 154.398438 L 1050.640625 506.84375 L 557.53125 742.972656 Z M 388.761719 390.527344 " clip-rule="nonzero"/></clipPath><clipPath id="08c0d41230"><path d="M 489 234 L 988 234 L 988 674 L 489 674 Z M 489 234 " clip-rule="nonzero"/></clipPath><clipPath id="981d2d6d98"><path d="M 388.761719 390.527344 L 881.871094 154.398438 L 1050.640625 506.84375 L 557.53125 742.972656 Z M 388.761719 390.527344 " clip-rule="nonzero"/></clipPath><clipPath id="b99bac20d8"><path d="M 388.761719 390.527344 L 881.871094 154.398438 L 1050.640625 506.84375 L 557.53125 742.972656 Z M 388.761719 390.527344 " clip-rule="nonzero"/></clipPath></defs><g clip-path="url(#63c0f1c835)"><g clip-path="url(#4b74c3b580)"><g clip-path="url(#775fbc0d04)"><path fill="#ffb100" d="M 630.90625 414.53125 L 619.851562 419.824219 L 614.558594 408.769531 C 614.289062 408.203125 613.988281 407.648438 613.660156 407.109375 C 613.332031 406.570312 612.980469 406.050781 612.601562 405.546875 C 612.222656 405.042969 611.820312 404.558594 611.394531 404.09375 C 610.96875 403.628906 610.523438 403.183594 610.054688 402.765625 C 609.585938 402.34375 609.097656 401.945312 608.585938 401.574219 C 608.078125 401.199219 607.554688 400.851562 607.011719 400.53125 C 606.46875 400.210938 605.914062 399.917969 605.34375 399.648438 C 604.769531 399.382812 604.1875 399.144531 603.59375 398.933594 C 603 398.726562 602.394531 398.546875 601.785156 398.394531 C 601.171875 398.246094 600.554688 398.125 599.929688 398.035156 C 599.304688 397.945312 598.679688 397.886719 598.050781 397.859375 C 597.417969 397.832031 596.789062 397.832031 596.160156 397.867188 C 595.53125 397.898438 594.90625 397.964844 594.28125 398.058594 C 593.660156 398.152344 593.042969 398.28125 592.429688 398.433594 C 591.820312 398.589844 591.21875 398.777344 590.625 398.988281 C 590.03125 399.203125 589.453125 399.449219 588.882812 399.71875 L 569.9375 408.792969 C 569.371094 409.0625 568.816406 409.363281 568.277344 409.691406 C 567.738281 410.019531 567.21875 410.371094 566.714844 410.75 C 566.210938 411.128906 565.726562 411.53125 565.261719 411.957031 C 564.796875 412.382812 564.351562 412.828125 563.933594 413.300781 C 563.511719 413.769531 563.113281 414.257812 562.742188 414.765625 C 562.371094 415.273438 562.023438 415.800781 561.703125 416.339844 C 561.378906 416.882812 561.085938 417.441406 560.820312 418.011719 C 560.554688 418.582031 560.316406 419.164062 560.105469 419.761719 C 559.894531 420.355469 559.714844 420.957031 559.566406 421.570312 C 559.414062 422.183594 559.296875 422.800781 559.207031 423.425781 C 559.117188 424.046875 559.058594 424.675781 559.03125 425.304688 C 559 425.933594 559.003906 426.5625 559.039062 427.191406 C 559.070312 427.824219 559.136719 428.449219 559.230469 429.070312 C 559.328125 429.695312 559.453125 430.3125 559.609375 430.921875 C 559.761719 431.535156 559.949219 432.136719 560.164062 432.726562 C 560.378906 433.320312 560.621094 433.902344 560.894531 434.46875 L 566.183594 445.523438 L 555.132812 450.816406 C 554.566406 451.085938 554.011719 451.386719 553.472656 451.714844 C 552.933594 452.042969 552.414062 452.394531 551.910156 452.773438 C 551.40625 453.152344 550.921875 453.554688 550.457031 453.980469 C 549.992188 454.40625 549.546875 454.851562 549.128906 455.320312 C 548.707031 455.792969 548.308594 456.28125 547.9375 456.789062 C 547.5625 457.296875 547.21875 457.820312 546.894531 458.363281 C 546.574219 458.90625 546.28125 459.460938 546.015625 460.035156 C 545.746094 460.605469 545.507812 461.1875 545.300781 461.78125 C 545.089844 462.375 544.910156 462.980469 544.761719 463.589844 C 544.609375 464.203125 544.488281 464.820312 544.402344 465.445312 C 544.3125 466.070312 544.253906 466.695312 544.222656 467.324219 C 544.195312 467.953125 544.199219 468.585938 544.230469 469.214844 C 544.265625 469.84375 544.328125 470.46875 544.425781 471.09375 C 544.519531 471.714844 544.644531 472.332031 544.800781 472.941406 C 544.957031 473.554688 545.140625 474.15625 545.355469 474.746094 C 545.570312 475.339844 545.8125 475.921875 546.085938 476.488281 L 555.15625 495.433594 C 555.429688 496.003906 555.730469 496.554688 556.058594 497.09375 C 556.382812 497.632812 556.738281 498.15625 557.113281 498.660156 C 557.492188 499.164062 557.894531 499.648438 558.320312 500.113281 C 558.746094 500.578125 559.195312 501.019531 559.664062 501.441406 C 560.132812 501.859375 560.621094 502.257812 561.128906 502.628906 C 561.636719 503.003906 562.164062 503.351562 562.707031 503.671875 C 563.246094 503.992188 563.804688 504.285156 564.375 504.554688 C 564.945312 504.820312 565.527344 505.058594 566.125 505.265625 C 566.71875 505.476562 567.320312 505.65625 567.933594 505.808594 C 568.546875 505.957031 569.164062 506.078125 569.785156 506.167969 C 570.410156 506.257812 571.039062 506.316406 571.667969 506.34375 C 572.296875 506.371094 572.925781 506.367188 573.554688 506.335938 C 574.183594 506.300781 574.8125 506.238281 575.433594 506.144531 C 576.058594 506.046875 576.675781 505.921875 577.285156 505.765625 C 577.894531 505.609375 578.496094 505.425781 579.089844 505.210938 C 579.683594 504.996094 580.261719 504.753906 580.832031 504.484375 L 591.882812 499.191406 L 597.175781 510.242188 C 597.449219 510.808594 597.75 511.363281 598.078125 511.902344 C 598.402344 512.441406 598.757812 512.960938 599.136719 513.464844 C 599.511719 513.972656 599.914062 514.453125 600.339844 514.917969 C 600.765625 515.382812 601.214844 515.828125 601.683594 516.246094 C 602.152344 516.667969 602.640625 517.066406 603.148438 517.4375 C 603.65625 517.8125 604.183594 518.15625 604.726562 518.480469 C 605.269531 518.800781 605.824219 519.09375 606.394531 519.359375 C 606.964844 519.628906 607.550781 519.867188 608.144531 520.074219 C 608.738281 520.285156 609.339844 520.464844 609.953125 520.613281 C 610.566406 520.765625 611.183594 520.882812 611.808594 520.972656 C 612.429688 521.0625 613.058594 521.121094 613.6875 521.152344 C 614.316406 521.179688 614.945312 521.175781 615.574219 521.144531 C 616.203125 521.109375 616.832031 521.046875 617.453125 520.949219 C 618.078125 520.855469 618.695312 520.730469 619.304688 520.574219 C 619.914062 520.417969 620.515625 520.234375 621.109375 520.019531 C 621.703125 519.804688 622.28125 519.5625 622.851562 519.289062 L 641.796875 510.21875 C 642.363281 509.945312 642.917969 509.644531 643.457031 509.316406 C 643.996094 508.992188 644.515625 508.636719 645.019531 508.261719 C 645.523438 507.882812 646.007812 507.480469 646.472656 507.054688 C 646.9375 506.628906 647.382812 506.179688 647.800781 505.710938 C 648.222656 505.242188 648.621094 504.753906 648.992188 504.246094 C 649.363281 503.738281 649.710938 503.210938 650.03125 502.667969 C 650.355469 502.128906 650.648438 501.570312 650.914062 501 C 651.183594 500.429688 651.417969 499.847656 651.628906 499.25 C 651.839844 498.65625 652.019531 498.054688 652.167969 497.441406 C 652.320312 496.828125 652.4375 496.210938 652.527344 495.585938 C 652.617188 494.964844 652.675781 494.335938 652.707031 493.707031 C 652.734375 493.078125 652.730469 492.449219 652.699219 491.820312 C 652.664062 491.191406 652.597656 490.5625 652.503906 489.941406 C 652.410156 489.316406 652.285156 488.699219 652.128906 488.089844 C 651.972656 487.480469 651.789062 486.878906 651.574219 486.285156 C 651.359375 485.691406 651.117188 485.113281 650.84375 484.542969 L 645.550781 473.492188 L 656.605469 468.199219 C 657.171875 467.925781 657.726562 467.625 658.265625 467.296875 C 658.804688 466.972656 659.324219 466.617188 659.828125 466.238281 C 660.332031 465.863281 660.816406 465.460938 661.28125 465.035156 C 661.746094 464.609375 662.1875 464.160156 662.609375 463.691406 C 663.03125 463.222656 663.425781 462.734375 663.800781 462.226562 C 664.171875 461.71875 664.519531 461.191406 664.839844 460.648438 C 665.164062 460.105469 665.457031 459.550781 665.722656 458.980469 C 665.988281 458.410156 666.226562 457.824219 666.4375 457.230469 C 666.648438 456.636719 666.828125 456.035156 666.976562 455.421875 C 667.128906 454.808594 667.246094 454.191406 667.335938 453.566406 C 667.425781 452.945312 667.484375 452.316406 667.511719 451.6875 C 667.542969 451.058594 667.539062 450.429688 667.503906 449.800781 C 667.472656 449.171875 667.40625 448.542969 667.3125 447.921875 C 667.21875 447.296875 667.09375 446.679688 666.9375 446.070312 C 666.78125 445.460938 666.597656 444.859375 666.382812 444.265625 C 666.167969 443.671875 665.925781 443.09375 665.652344 442.523438 L 656.582031 423.578125 C 656.308594 423.011719 656.007812 422.457031 655.679688 421.917969 C 655.351562 421.378906 655 420.859375 654.621094 420.355469 C 654.242188 419.851562 653.84375 419.367188 653.417969 418.902344 C 652.992188 418.4375 652.542969 417.992188 652.074219 417.574219 C 651.605469 417.152344 651.117188 416.753906 650.609375 416.382812 C 650.097656 416.011719 649.574219 415.664062 649.03125 415.339844 C 648.488281 415.019531 647.933594 414.726562 647.363281 414.460938 C 646.792969 414.191406 646.207031 413.957031 645.613281 413.746094 C 645.019531 413.535156 644.417969 413.355469 643.804688 413.207031 C 643.191406 413.054688 642.574219 412.9375 641.949219 412.847656 C 641.328125 412.757812 640.699219 412.699219 640.070312 412.667969 C 639.441406 412.640625 638.8125 412.644531 638.183594 412.675781 C 637.550781 412.710938 636.925781 412.777344 636.304688 412.871094 C 635.679688 412.964844 635.0625 413.089844 634.453125 413.246094 C 633.84375 413.402344 633.242188 413.585938 632.648438 413.800781 C 632.054688 414.015625 631.472656 414.257812 630.90625 414.53125 Z M 649.867188 450.082031 C 649.96875 450.292969 650.023438 450.511719 650.035156 450.742188 C 650.050781 450.972656 650.015625 451.199219 649.941406 451.417969 C 649.863281 451.636719 649.746094 451.832031 649.59375 452.003906 C 649.4375 452.175781 649.253906 452.3125 649.046875 452.414062 L 630.101562 461.484375 C 629.582031 461.734375 629.09375 462.03125 628.632812 462.375 C 628.171875 462.71875 627.75 463.105469 627.367188 463.53125 C 626.984375 463.960938 626.644531 464.421875 626.351562 464.914062 C 626.058594 465.410156 625.816406 465.925781 625.625 466.46875 C 625.4375 467.011719 625.300781 467.566406 625.21875 468.136719 C 625.136719 468.703125 625.109375 469.273438 625.140625 469.847656 C 625.171875 470.421875 625.257812 470.988281 625.402344 471.542969 C 625.542969 472.101562 625.738281 472.640625 625.988281 473.15625 L 635.058594 492.101562 C 635.160156 492.3125 635.214844 492.53125 635.226562 492.761719 C 635.242188 492.996094 635.207031 493.21875 635.132812 493.4375 C 635.054688 493.65625 634.9375 493.851562 634.785156 494.023438 C 634.628906 494.195312 634.445312 494.332031 634.238281 494.433594 L 615.292969 503.503906 C 615.082031 503.605469 614.863281 503.660156 614.632812 503.675781 C 614.402344 503.6875 614.175781 503.65625 613.957031 503.578125 C 613.738281 503.5 613.542969 503.382812 613.371094 503.230469 C 613.199219 503.074219 613.0625 502.894531 612.960938 502.683594 L 603.890625 483.738281 C 603.640625 483.21875 603.34375 482.730469 603 482.273438 C 602.65625 481.8125 602.269531 481.390625 601.84375 481.007812 C 601.414062 480.621094 600.953125 480.285156 600.460938 479.992188 C 599.964844 479.699219 599.449219 479.457031 598.90625 479.265625 C 598.363281 479.074219 597.808594 478.9375 597.238281 478.855469 C 596.671875 478.773438 596.101562 478.75 595.527344 478.78125 C 594.953125 478.8125 594.386719 478.898438 593.832031 479.039062 C 593.273438 479.183594 592.734375 479.378906 592.21875 479.625 L 573.273438 488.699219 C 573.0625 488.796875 572.84375 488.855469 572.613281 488.867188 C 572.382812 488.878906 572.15625 488.847656 571.9375 488.769531 C 571.71875 488.691406 571.523438 488.578125 571.351562 488.421875 C 571.179688 488.265625 571.042969 488.085938 570.941406 487.875 L 561.871094 468.929688 C 561.769531 468.722656 561.714844 468.5 561.699219 468.269531 C 561.6875 468.039062 561.722656 467.8125 561.796875 467.59375 C 561.875 467.375 561.992188 467.179688 562.144531 467.007812 C 562.300781 466.835938 562.480469 466.699219 562.691406 466.601562 L 581.636719 457.527344 C 582.15625 457.28125 582.644531 456.984375 583.105469 456.640625 C 583.5625 456.292969 583.984375 455.910156 584.367188 455.480469 C 584.753906 455.054688 585.089844 454.59375 585.382812 454.097656 C 585.675781 453.605469 585.917969 453.085938 586.109375 452.542969 C 586.300781 452.003906 586.4375 451.445312 586.519531 450.878906 C 586.601562 450.308594 586.625 449.738281 586.59375 449.164062 C 586.5625 448.589844 586.476562 448.023438 586.335938 447.46875 C 586.191406 446.910156 585.996094 446.375 585.75 445.855469 L 576.675781 426.910156 C 576.578125 426.703125 576.519531 426.480469 576.507812 426.25 C 576.496094 426.019531 576.527344 425.792969 576.605469 425.574219 C 576.679688 425.355469 576.796875 425.160156 576.953125 424.988281 C 577.105469 424.8125 577.289062 424.675781 577.496094 424.578125 L 596.441406 415.503906 C 596.652344 415.40625 596.871094 415.347656 597.105469 415.335938 C 597.335938 415.324219 597.5625 415.355469 597.78125 415.433594 C 598 415.511719 598.195312 415.628906 598.367188 415.78125 C 598.539062 415.9375 598.675781 416.121094 598.773438 416.328125 L 607.847656 435.273438 C 608.09375 435.792969 608.390625 436.28125 608.734375 436.742188 C 609.082031 437.203125 609.464844 437.625 609.894531 438.007812 C 610.320312 438.390625 610.78125 438.730469 611.277344 439.023438 C 611.769531 439.316406 612.289062 439.558594 612.832031 439.75 C 613.375 439.941406 613.929688 440.074219 614.496094 440.15625 C 615.066406 440.238281 615.636719 440.265625 616.210938 440.234375 C 616.785156 440.203125 617.351562 440.117188 617.90625 439.972656 C 618.464844 439.832031 619 439.636719 619.519531 439.386719 L 638.464844 430.316406 C 638.671875 430.214844 638.894531 430.160156 639.125 430.148438 C 639.355469 430.132812 639.582031 430.167969 639.800781 430.242188 C 640.019531 430.320312 640.214844 430.4375 640.386719 430.589844 C 640.558594 430.746094 640.695312 430.929688 640.796875 431.136719 Z M 649.867188 450.082031 " fill-opacity="1" fill-rule="nonzero"/></g></g></g><g clip-path="url(#dc82b3cc99)"><g clip-path="url(#22eaf79b86)"><g clip-path="url(#6ec92a3311)"><path fill="#ffb100" d="M 806.882812 386.921875 C 806.019531 387.324219 805.175781 387.765625 804.355469 388.25 C 803.53125 388.734375 802.738281 389.257812 801.96875 389.820312 C 801.195312 390.382812 800.457031 390.980469 799.742188 391.617188 C 799.03125 392.25 798.351562 392.917969 797.707031 393.621094 C 797.058594 394.320312 796.449219 395.050781 795.875 395.8125 C 795.300781 396.574219 794.765625 397.359375 794.265625 398.171875 C 793.769531 398.988281 793.3125 399.824219 792.894531 400.679688 C 792.480469 401.539062 792.105469 402.414062 791.777344 403.308594 C 791.445312 404.203125 791.160156 405.113281 790.917969 406.035156 C 790.675781 406.957031 790.480469 407.890625 790.332031 408.832031 C 790.179688 409.773438 790.078125 410.71875 790.019531 411.671875 C 789.960938 412.625 789.949219 413.574219 789.988281 414.527344 C 790.023438 415.480469 790.105469 416.429688 790.234375 417.375 C 790.363281 418.320312 790.535156 419.257812 790.757812 420.183594 C 790.976562 421.113281 791.242188 422.027344 791.550781 422.929688 C 791.859375 423.832031 792.214844 424.714844 792.609375 425.582031 C 793.007812 426.449219 793.445312 427.296875 793.921875 428.121094 C 794.402344 428.945312 794.917969 429.746094 795.476562 430.519531 C 796.035156 431.292969 796.628906 432.035156 797.257812 432.753906 C 797.886719 433.46875 798.550781 434.152344 799.25 434.800781 C 799.945312 435.453125 800.671875 436.070312 801.429688 436.648438 C 802.1875 437.226562 802.972656 437.769531 803.78125 438.273438 C 804.589844 438.773438 805.425781 439.238281 806.28125 439.660156 C 807.136719 440.078125 808.007812 440.457031 808.902344 440.792969 C 809.792969 441.128906 810.699219 441.421875 811.621094 441.667969 C 812.542969 441.917969 813.472656 442.117188 814.414062 442.273438 C 815.355469 442.429688 816.300781 442.539062 817.253906 442.605469 C 818.203125 442.667969 819.15625 442.683594 820.109375 442.65625 C 821.0625 442.625 822.011719 442.546875 822.957031 442.425781 C 823.902344 442.304688 824.839844 442.136719 825.769531 441.921875 C 826.699219 441.707031 827.613281 441.449219 828.519531 441.144531 C 829.421875 440.839844 830.308594 440.492188 831.179688 440.101562 C 865.539062 422.863281 842.632812 371.628906 806.882812 386.921875 Z M 823.933594 424.171875 C 823.238281 424.484375 822.515625 424.730469 821.773438 424.902344 C 821.027344 425.074219 820.273438 425.175781 819.511719 425.203125 C 818.746094 425.226562 817.988281 425.179688 817.234375 425.058594 C 816.480469 424.9375 815.742188 424.742188 815.027344 424.476562 C 814.308594 424.210938 813.625 423.878906 812.976562 423.476562 C 812.324219 423.078125 811.714844 422.617188 811.15625 422.101562 C 810.59375 421.582031 810.085938 421.015625 809.636719 420.398438 C 809.183594 419.78125 808.796875 419.125 808.476562 418.433594 C 808.152344 417.742188 807.898438 417.023438 807.71875 416.28125 C 807.535156 415.539062 807.425781 414.785156 807.390625 414.023438 C 807.355469 413.257812 807.394531 412.5 807.503906 411.742188 C 807.617188 410.988281 807.804688 410.25 808.058594 409.53125 C 808.316406 408.808594 808.640625 408.121094 809.035156 407.464844 C 809.425781 406.808594 809.875 406.199219 810.386719 405.628906 C 810.898438 405.0625 811.460938 404.546875 812.070312 404.089844 C 812.683594 403.632812 813.332031 403.234375 814.019531 402.90625 C 814.71875 402.589844 815.4375 402.347656 816.183594 402.175781 C 816.925781 402 817.679688 401.902344 818.445312 401.875 C 819.207031 401.851562 819.964844 401.898438 820.71875 402.023438 C 821.472656 402.144531 822.207031 402.339844 822.925781 402.605469 C 823.640625 402.871094 824.324219 403.203125 824.976562 403.601562 C 825.625 404.003906 826.234375 404.460938 826.792969 404.980469 C 827.355469 405.496094 827.863281 406.066406 828.3125 406.683594 C 828.761719 407.300781 829.148438 407.953125 829.472656 408.644531 C 829.796875 409.339844 830.046875 410.054688 830.230469 410.796875 C 830.414062 411.539062 830.523438 412.292969 830.558594 413.054688 C 830.59375 413.816406 830.554688 414.578125 830.441406 415.332031 C 830.328125 416.085938 830.144531 416.824219 829.890625 417.542969 C 829.632812 418.265625 829.308594 418.953125 828.917969 419.609375 C 828.527344 420.265625 828.074219 420.875 827.566406 421.445312 C 827.054688 422.011719 826.492188 422.527344 825.882812 422.984375 C 825.273438 423.445312 824.621094 423.839844 823.933594 424.171875 Z M 823.933594 424.171875 " fill-opacity="1" fill-rule="nonzero"/></g></g></g><g clip-path="url(#0f149bb903)"><g clip-path="url(#62a49766b3)"><g clip-path="url(#a04a504615)"><path fill="#ffb100" d="M 739.464844 363.027344 C 704.671875 380.050781 728.863281 432.117188 764.09375 415.855469 C 764.945312 415.441406 765.773438 414.988281 766.582031 414.496094 C 767.386719 414.003906 768.167969 413.472656 768.925781 412.90625 C 769.679688 412.335938 770.40625 411.730469 771.101562 411.09375 C 771.800781 410.453125 772.464844 409.78125 773.09375 409.078125 C 773.726562 408.371094 774.320312 407.640625 774.882812 406.875 C 775.441406 406.113281 775.964844 405.328125 776.445312 404.515625 C 776.929688 403.703125 777.371094 402.867188 777.773438 402.011719 C 778.175781 401.15625 778.535156 400.28125 778.851562 399.390625 C 779.167969 398.5 779.441406 397.59375 779.671875 396.675781 C 779.902344 395.761719 780.085938 394.832031 780.222656 393.898438 C 780.363281 392.960938 780.453125 392.023438 780.503906 391.078125 C 780.550781 390.132812 780.550781 389.1875 780.507812 388.246094 C 780.460938 387.300781 780.371094 386.359375 780.234375 385.421875 C 780.097656 384.488281 779.917969 383.5625 779.691406 382.644531 C 779.464844 381.722656 779.195312 380.820312 778.878906 379.925781 C 778.566406 379.035156 778.207031 378.160156 777.808594 377.304688 C 777.410156 376.445312 776.96875 375.613281 776.488281 374.796875 C 776.007812 373.984375 775.488281 373.195312 774.929688 372.429688 C 774.371094 371.667969 773.777344 370.933594 773.148438 370.226562 C 772.519531 369.519531 771.859375 368.847656 771.164062 368.203125 C 770.46875 367.5625 769.742188 366.957031 768.988281 366.386719 C 768.234375 365.816406 767.457031 365.28125 766.652344 364.785156 C 765.84375 364.292969 765.015625 363.835938 764.167969 363.421875 C 763.316406 363.007812 762.449219 362.636719 761.5625 362.304688 C 760.675781 361.976562 759.777344 361.6875 758.863281 361.445312 C 757.949219 361.203125 757.023438 361.007812 756.089844 360.855469 C 755.15625 360.703125 754.21875 360.59375 753.277344 360.535156 C 752.332031 360.472656 751.386719 360.457031 750.441406 360.488281 C 749.496094 360.519531 748.554688 360.597656 747.617188 360.71875 C 746.679688 360.839844 745.75 361.007812 744.828125 361.222656 C 743.90625 361.433594 743 361.691406 742.101562 361.992188 C 741.207031 362.292969 740.328125 362.636719 739.464844 363.027344 Z M 756.296875 400.179688 C 755.601562 400.472656 754.886719 400.695312 754.148438 400.851562 C 753.410156 401.003906 752.664062 401.085938 751.910156 401.097656 C 751.15625 401.105469 750.40625 401.042969 749.664062 400.90625 C 748.921875 400.769531 748.203125 400.566406 747.5 400.289062 C 746.796875 400.011719 746.128906 399.671875 745.492188 399.265625 C 744.859375 398.859375 744.269531 398.394531 743.722656 397.875 C 743.175781 397.355469 742.6875 396.785156 742.25 396.171875 C 741.816406 395.554688 741.445312 394.902344 741.136719 394.214844 C 740.828125 393.527344 740.589844 392.8125 740.417969 392.078125 C 740.25 391.34375 740.152344 390.601562 740.125 389.847656 C 740.097656 389.09375 740.148438 388.34375 740.265625 387.597656 C 740.386719 386.855469 740.578125 386.128906 740.839844 385.421875 C 741.097656 384.714844 741.425781 384.039062 741.820312 383.394531 C 742.210938 382.75 742.660156 382.148438 743.171875 381.59375 C 743.679688 381.035156 744.238281 380.535156 744.84375 380.085938 C 745.449219 379.636719 746.09375 379.25 746.777344 378.929688 C 747.476562 378.597656 748.203125 378.335938 748.953125 378.148438 C 749.707031 377.964844 750.46875 377.851562 751.246094 377.816406 C 752.019531 377.785156 752.789062 377.824219 753.554688 377.945312 C 754.320312 378.0625 755.066406 378.257812 755.792969 378.527344 C 756.523438 378.792969 757.214844 379.132812 757.875 379.539062 C 758.535156 379.945312 759.148438 380.414062 759.714844 380.941406 C 760.28125 381.472656 760.789062 382.050781 761.238281 382.683594 C 761.691406 383.3125 762.074219 383.984375 762.390625 384.691406 C 762.707031 385.398438 762.953125 386.128906 763.121094 386.886719 C 763.292969 387.640625 763.386719 388.40625 763.40625 389.183594 C 763.425781 389.957031 763.363281 390.726562 763.230469 391.488281 C 763.09375 392.253906 762.882812 392.996094 762.601562 393.714844 C 762.316406 394.4375 761.964844 395.125 761.542969 395.773438 C 761.121094 396.425781 760.640625 397.027344 760.101562 397.582031 C 759.558594 398.136719 758.96875 398.632812 758.328125 399.070312 C 757.6875 399.507812 757.011719 399.875 756.296875 400.179688 Z M 756.296875 400.179688 " fill-opacity="1" fill-rule="nonzero"/></g></g></g><g clip-path="url(#5ee60e3627)"><g clip-path="url(#c6966a52f6)"><g clip-path="url(#e940e38fba)"><path fill="#ffb100" d="M 830.464844 319.449219 C 796.015625 337.039062 819.609375 388.261719 855.269531 372.195312 C 889.640625 355.03125 865.304688 304.15625 830.464844 319.449219 Z M 847.457031 356.527344 C 846.765625 356.835938 846.046875 357.078125 845.304688 357.246094 C 844.5625 357.417969 843.8125 357.511719 843.054688 357.535156 C 842.292969 357.558594 841.539062 357.507812 840.789062 357.382812 C 840.039062 357.257812 839.308594 357.0625 838.59375 356.792969 C 837.882812 356.523438 837.203125 356.1875 836.558594 355.789062 C 835.914062 355.386719 835.3125 354.925781 834.757812 354.40625 C 834.199219 353.886719 833.699219 353.320312 833.257812 352.703125 C 832.8125 352.085938 832.429688 351.429688 832.117188 350.738281 C 831.800781 350.046875 831.554688 349.332031 831.378906 348.59375 C 831.203125 347.851562 831.097656 347.101562 831.070312 346.34375 C 831.039062 345.582031 831.085938 344.828125 831.207031 344.078125 C 831.324219 343.324219 831.515625 342.59375 831.777344 341.878906 C 832.039062 341.164062 832.371094 340.484375 832.765625 339.835938 C 833.164062 339.1875 833.617188 338.582031 834.132812 338.023438 C 834.648438 337.460938 835.210938 336.957031 835.824219 336.507812 C 836.4375 336.058594 837.089844 335.671875 837.777344 335.351562 C 838.472656 335.039062 839.191406 334.800781 839.933594 334.628906 C 840.671875 334.460938 841.421875 334.363281 842.183594 334.339844 C 842.945312 334.316406 843.699219 334.371094 844.449219 334.496094 C 845.199219 334.621094 845.929688 334.816406 846.640625 335.085938 C 847.351562 335.351562 848.03125 335.6875 848.679688 336.089844 C 849.324219 336.492188 849.925781 336.949219 850.480469 337.46875 C 851.035156 337.988281 851.535156 338.558594 851.980469 339.175781 C 852.425781 339.792969 852.804688 340.445312 853.121094 341.136719 C 853.4375 341.828125 853.683594 342.542969 853.859375 343.285156 C 854.035156 344.023438 854.136719 344.773438 854.167969 345.535156 C 854.195312 346.292969 854.152344 347.050781 854.03125 347.800781 C 853.914062 348.550781 853.722656 349.285156 853.457031 349.996094 C 853.195312 350.710938 852.867188 351.394531 852.46875 352.042969 C 852.074219 352.691406 851.617188 353.296875 851.105469 353.855469 C 850.589844 354.414062 850.027344 354.921875 849.410156 355.371094 C 848.796875 355.820312 848.148438 356.203125 847.457031 356.527344 Z M 847.457031 356.527344 " fill-opacity="1" fill-rule="nonzero"/></g></g></g><g clip-path="url(#4153caa352)"><g clip-path="url(#cac8a1b433)"><g clip-path="url(#816a058e2a)"><path fill="#ffb100" d="M 787.78125 348.914062 C 788.640625 348.5 789.480469 348.042969 790.292969 347.546875 C 791.109375 347.050781 791.898438 346.515625 792.660156 345.945312 C 793.421875 345.371094 794.15625 344.765625 794.859375 344.121094 C 795.5625 343.476562 796.234375 342.800781 796.871094 342.089844 C 797.507812 341.382812 798.113281 340.640625 798.675781 339.875 C 799.242188 339.105469 799.769531 338.3125 800.261719 337.496094 C 800.75 336.675781 801.195312 335.835938 801.601562 334.972656 C 802.011719 334.109375 802.375 333.230469 802.695312 332.332031 C 803.015625 331.433594 803.292969 330.519531 803.527344 329.597656 C 803.757812 328.671875 803.945312 327.738281 804.089844 326.792969 C 804.230469 325.851562 804.324219 324.902344 804.375 323.949219 C 804.425781 322.996094 804.429688 322.046875 804.382812 321.09375 C 804.339844 320.140625 804.253906 319.191406 804.117188 318.246094 C 803.980469 317.300781 803.800781 316.367188 803.574219 315.441406 C 803.347656 314.515625 803.078125 313.601562 802.761719 312.699219 C 802.445312 311.800781 802.085938 310.917969 801.6875 310.050781 C 801.285156 309.1875 800.84375 308.34375 800.359375 307.519531 C 799.875 306.699219 799.355469 305.902344 798.792969 305.128906 C 798.230469 304.359375 797.636719 303.617188 797.003906 302.902344 C 796.367188 302.191406 795.703125 301.507812 795.003906 300.859375 C 794.304688 300.210938 793.574219 299.597656 792.816406 299.019531 C 792.058594 298.441406 791.269531 297.902344 790.460938 297.402344 C 789.648438 296.902344 788.816406 296.441406 787.957031 296.019531 C 787.101562 295.601562 786.226562 295.222656 785.335938 294.886719 C 784.441406 294.554688 783.535156 294.261719 782.613281 294.015625 C 781.691406 293.769531 780.761719 293.566406 779.820312 293.410156 C 778.878906 293.253906 777.933594 293.144531 776.980469 293.082031 C 776.027344 293.015625 775.074219 293 774.121094 293.027344 C 773.167969 293.058594 772.21875 293.132812 771.273438 293.253906 C 770.328125 293.375 769.390625 293.539062 768.460938 293.753906 C 767.53125 293.964844 766.613281 294.222656 765.707031 294.523438 C 764.800781 294.824219 763.914062 295.167969 763.042969 295.558594 C 762.183594 295.972656 761.347656 296.425781 760.53125 296.921875 C 759.71875 297.417969 758.929688 297.953125 758.164062 298.527344 C 757.402344 299.097656 756.667969 299.707031 755.964844 300.351562 C 755.261719 300.996094 754.589844 301.671875 753.953125 302.378906 C 753.316406 303.089844 752.714844 303.828125 752.148438 304.59375 C 751.582031 305.363281 751.054688 306.15625 750.566406 306.976562 C 750.078125 307.792969 749.628906 308.636719 749.222656 309.5 C 748.816406 310.359375 748.449219 311.242188 748.128906 312.140625 C 747.808594 313.039062 747.53125 313.949219 747.296875 314.875 C 747.066406 315.800781 746.878906 316.734375 746.738281 317.675781 C 746.59375 318.621094 746.5 319.566406 746.449219 320.519531 C 746.402344 321.472656 746.398438 322.425781 746.441406 323.378906 C 746.484375 324.332031 746.574219 325.28125 746.707031 326.222656 C 746.84375 327.167969 747.023438 328.101562 747.25 329.03125 C 747.476562 329.957031 747.75 330.871094 748.0625 331.769531 C 748.378906 332.667969 748.738281 333.550781 749.140625 334.417969 C 749.539062 335.28125 749.984375 336.125 750.464844 336.949219 C 750.949219 337.773438 751.472656 338.570312 752.03125 339.339844 C 752.59375 340.113281 753.191406 340.855469 753.824219 341.566406 C 754.457031 342.28125 755.121094 342.960938 755.820312 343.609375 C 756.519531 344.257812 757.25 344.871094 758.007812 345.449219 C 758.769531 346.027344 759.554688 346.566406 760.367188 347.066406 C 761.175781 347.570312 762.011719 348.03125 762.867188 348.449219 C 763.722656 348.871094 764.597656 349.246094 765.492188 349.582031 C 766.382812 349.917969 767.292969 350.207031 768.214844 350.453125 C 769.132812 350.703125 770.066406 350.902344 771.007812 351.058594 C 771.949219 351.214844 772.894531 351.324219 773.84375 351.390625 C 774.796875 351.453125 775.75 351.472656 776.703125 351.441406 C 777.65625 351.414062 778.605469 351.339844 779.550781 351.21875 C 780.5 351.097656 781.4375 350.929688 782.367188 350.71875 C 783.296875 350.503906 784.214844 350.25 785.117188 349.945312 C 786.023438 349.644531 786.910156 349.300781 787.78125 348.914062 Z M 764.402344 318.195312 C 764.8125 317.117188 765.363281 316.121094 766.0625 315.207031 C 766.761719 314.292969 767.578125 313.496094 768.511719 312.820312 C 769.441406 312.144531 770.449219 311.613281 771.539062 311.234375 C 772.625 310.851562 773.742188 310.632812 774.894531 310.578125 C 776.042969 310.527344 777.175781 310.636719 778.292969 310.914062 C 779.410156 311.191406 780.464844 311.625 781.457031 312.210938 C 782.449219 312.796875 783.335938 313.511719 784.117188 314.359375 C 784.898438 315.203125 785.542969 316.144531 786.050781 317.175781 C 786.355469 317.886719 786.59375 318.613281 786.761719 319.367188 C 786.929688 320.117188 787.027344 320.878906 787.054688 321.648438 C 787.082031 322.417969 787.035156 323.183594 786.917969 323.945312 C 786.800781 324.707031 786.617188 325.453125 786.359375 326.179688 C 786.105469 326.90625 785.785156 327.601562 785.398438 328.269531 C 785.011719 328.9375 784.566406 329.5625 784.066406 330.144531 C 783.5625 330.730469 783.007812 331.261719 782.40625 331.742188 C 781.804688 332.222656 781.164062 332.644531 780.480469 333.003906 C 779.421875 333.484375 778.3125 333.796875 777.15625 333.953125 C 776.003906 334.105469 774.851562 334.085938 773.703125 333.902344 C 772.550781 333.714844 771.453125 333.367188 770.40625 332.859375 C 769.359375 332.351562 768.40625 331.703125 767.550781 330.914062 C 766.691406 330.125 765.96875 329.226562 765.375 328.226562 C 764.78125 327.222656 764.34375 326.15625 764.066406 325.027344 C 763.785156 323.894531 763.675781 322.75 763.734375 321.585938 C 763.789062 320.421875 764.015625 319.292969 764.402344 318.195312 Z M 764.402344 318.195312 " fill-opacity="1" fill-rule="nonzero"/></g></g></g><g clip-path="url(#08c0d41230)"><g clip-path="url(#981d2d6d98)"><g clip-path="url(#b99bac20d8)"><path fill="#ffb100" d="M 986.550781 449.515625 C 976.957031 398.183594 951.722656 361.070312 912.363281 312.144531 C 872.828125 262.714844 799.566406 203.386719 734.34375 252.59375 C 702.089844 274.429688 669.589844 312.664062 631.863281 319.085938 C 610.605469 323.382812 589.589844 328.5625 568.796875 333.496094 C 449.984375 361.484375 490.339844 520.40625 527.730469 609.664062 C 552.984375 669.304688 605.867188 703.410156 652.398438 639.503906 C 666.308594 619.691406 677.523438 598.460938 686.050781 575.800781 C 688.730469 568.335938 692.285156 561.308594 696.710938 554.722656 C 701.136719 548.140625 706.300781 542.195312 712.199219 536.890625 C 748.566406 506.699219 797.683594 484.660156 847.023438 500.78125 C 894.070312 517.582031 994.949219 531.800781 986.550781 449.515625 Z M 935.300781 495.285156 C 880.726562 503.78125 831.484375 464.921875 780.183594 481.847656 C 733.003906 495.953125 688.574219 520.304688 669.785156 569.339844 C 661.804688 590.601562 651.308594 610.539062 638.289062 629.148438 C 555.40625 738.050781 502.136719 488.472656 507.699219 443.074219 C 510.484375 352.953125 561.605469 352.808594 635.304688 336.25 C 660.71875 332.257812 688.066406 313.039062 710.046875 293.820312 C 745.398438 263.285156 780.546875 235.652344 828.226562 262.21875 C 882.519531 283.261719 1037.84375 479.222656 935.300781 495.285156 Z M 935.300781 495.285156 " fill-opacity="1" fill-rule="nonzero"/></g></g></g><path fill="#ffb100" d="M 403.386719 255.136719 C 403.386719 255.136719 300.335938 408.257812 353.960938 593.371094 C 360.113281 590.15625 366.542969 587.21875 372.695312 584.003906 C 355.566406 486.113281 376.890625 349.457031 438.589844 278.070312 C 426.984375 270.34375 415.34375 262.894531 403.386719 255.136719 Z M 403.386719 255.136719 " fill-opacity="1" fill-rule="evenodd"/><path fill="#231f20" d="M 349.625 603.578125 L 347.25 595.328125 C 293.34375 409.238281 396.535156 252.792969 397.585938 251.253906 L 401.429688 245.554688 L 416.53125 255.34375 C 425.269531 260.972656 433.871094 266.53125 442.46875 272.265625 L 449.078125 276.671875 L 443.902344 282.648438 C 380.808594 355.679688 363.679688 491.8125 379.582031 582.8125 L 380.457031 587.847656 L 375.949219 590.226562 C 372.800781 591.867188 369.585938 593.441406 366.371094 595.015625 C 363.292969 596.519531 360.21875 598.019531 357.210938 599.59375 Z M 405.589844 264.890625 C 388.324219 293.871094 316.90625 427.03125 358.433594 583.304688 C 359.0625 582.988281 359.65625 582.707031 360.289062 582.394531 C 361.859375 581.625 363.433594 580.855469 364.972656 580.085938 C 350.394531 488.457031 367.628906 355.679688 428.242188 279.574219 C 421.84375 275.378906 415.449219 271.21875 408.945312 267.023438 Z M 405.589844 264.890625 " fill-opacity="1" fill-rule="nonzero"/><path fill="#ffb100" d="M 1035.542969 255.136719 C 1035.542969 255.136719 1138.90625 408.257812 1085.285156 593.371094 C 1079.132812 590.15625 1072.699219 587.21875 1066.546875 584.003906 C 1083.675781 486.113281 1062.351562 349.457031 1000.65625 278.070312 C 1012.296875 270.34375 1023.9375 262.894531 1035.542969 255.136719 Z M 1035.542969 255.136719 " fill-opacity="1" fill-rule="evenodd"/><path fill="#231f20" d="M 1089.617188 603.578125 L 1082.035156 599.59375 C 1079.027344 598.019531 1075.949219 596.519531 1072.875 595.015625 C 1069.660156 593.441406 1066.441406 591.867188 1063.296875 590.226562 L 1058.789062 587.847656 L 1059.660156 582.8125 C 1075.566406 491.8125 1058.472656 355.679688 995.375 282.648438 L 990.203125 276.671875 L 996.808594 272.265625 C 1002.648438 268.351562 1008.519531 264.539062 1014.359375 260.730469 C 1020.125 256.953125 1025.929688 253.175781 1031.695312 249.332031 L 1037.464844 245.488281 L 1041.34375 251.253906 C 1042.394531 252.828125 1145.933594 409.238281 1092.03125 595.363281 Z M 1074.308594 580.121094 C 1075.882812 580.890625 1077.417969 581.660156 1078.992188 582.429688 C 1079.621094 582.742188 1080.214844 583.023438 1080.84375 583.339844 C 1122.339844 427.171875 1050.816406 294.082031 1033.410156 264.960938 C 1029.597656 267.476562 1025.789062 269.957031 1021.976562 272.441406 C 1018.34375 274.816406 1014.671875 277.195312 1011.035156 279.605469 C 1071.652344 355.714844 1088.851562 488.492188 1074.308594 580.121094 Z M 1074.308594 580.121094 " fill-opacity="1" fill-rule="nonzero"/><path fill="#01c3dc" d="M 990.34375 296.492188 C 1005.863281 316.210938 1059.488281 263.875 1046.550781 245.453125 C 898.929688 15.765625 540.382812 16.082031 392.761719 245.453125 C 379.828125 263.875 433.449219 316.210938 448.972656 296.492188 C 598.832031 120.121094 845.9375 119.804688 990.34375 296.492188 Z M 990.34375 296.492188 " fill-opacity="1" fill-rule="evenodd"/><path fill="#231f20" d="M 439.636719 307.925781 C 432.121094 307.925781 423.140625 304.324219 413.527344 297.191406 C 396.152344 284.257812 375.703125 257.617188 387.027344 241.429688 C 457.535156 131.867188 581.980469 66.316406 719.78125 66.316406 C 719.8125 66.316406 719.882812 66.316406 719.917969 66.316406 C 857.578125 66.351562 981.882812 131.902344 1052.425781 241.675781 C 1063.609375 257.582031 1043.160156 284.257812 1025.789062 297.191406 C 1008.519531 310.023438 993.242188 311.421875 984.890625 300.863281 C 917.285156 218.148438 824.964844 172.035156 724.953125 171.09375 C 723.871094 171.09375 722.785156 171.09375 721.738281 171.09375 C 620.433594 171.09375 525.5625 217.132812 454.285156 301.039062 C 450.648438 305.652344 445.617188 307.925781 439.636719 307.925781 Z M 721.875 157.109375 C 722.925781 157.109375 724.007812 157.109375 725.058594 157.109375 C 829.296875 158.121094 925.429688 206.050781 995.726562 292.054688 L 995.796875 292.15625 C 999.152344 296.421875 1009.359375 291.949219 1017.398438 285.933594 C 1033.96875 273.59375 1044.628906 254.925781 1040.785156 249.4375 C 972.691406 143.507812 852.789062 80.335938 719.882812 80.300781 C 719.847656 80.300781 719.78125 80.300781 719.746094 80.300781 C 586.734375 80.300781 466.695312 143.4375 398.597656 249.226562 C 394.613281 254.925781 405.242188 273.628906 421.84375 285.933594 C 429.886719 291.914062 440.09375 296.421875 443.449219 292.15625 C 516.542969 206.121094 617.8125 157.109375 721.875 157.109375 Z M 721.875 157.109375 " fill-opacity="1" fill-rule="nonzero"/><path fill="#01c3dc" d="M 493.191406 465.140625 C 501.929688 512.964844 510.636719 560.753906 519.375 608.265625 C 528.429688 656.089844 537.132812 703.878906 545.871094 751.703125 C 552.96875 789.179688 451.558594 794.355469 444.777344 758.488281 C 436.703125 714.542969 428.628906 670.632812 420.550781 626.6875 C 412.476562 582.742188 404.402344 538.484375 396.328125 494.574219 C 389.511719 458.984375 486.09375 427.347656 493.191406 465.140625 Z M 493.191406 465.140625 " fill-opacity="1" fill-rule="evenodd"/><path fill="#231f20" d="M 494.414062 789.671875 C 483.265625 789.671875 472.425781 788.0625 463.722656 785.019531 C 448.9375 779.847656 439.988281 771.105469 437.855469 759.78125 L 413.628906 627.945312 C 409.539062 605.675781 405.449219 583.304688 401.359375 560.929688 C 397.375 539.183594 393.390625 517.472656 389.40625 495.796875 C 387.308594 484.714844 392.308594 473.5625 403.878906 463.566406 C 422.335938 447.660156 458.863281 435.5625 481.796875 443.605469 C 491.757812 447.097656 498.226562 454.300781 500.042969 463.84375 L 500.496094 466.433594 C 509.0625 513.382812 517.625 560.371094 526.191406 607.003906 C 535.246094 654.796875 544.089844 703.425781 552.6875 750.445312 C 554.46875 759.816406 551.113281 768.765625 543.25 775.511719 C 531.992188 785.230469 512.835938 789.671875 494.414062 789.671875 Z M 465.15625 455.035156 C 448.480469 455.035156 426.320312 462.691406 413.035156 474.160156 C 407.757812 478.703125 401.746094 485.730469 403.179688 493.210938 C 407.164062 514.921875 411.148438 536.667969 415.132812 558.375 C 419.222656 580.75 423.3125 603.089844 427.402344 625.359375 L 451.628906 757.15625 C 453.097656 764.882812 461.519531 769.359375 468.371094 771.769531 C 489.484375 779.148438 521.472656 775.792969 534.195312 764.847656 C 539.648438 760.164062 539.542969 755.792969 538.984375 752.929688 C 530.386719 705.871094 521.542969 657.277344 512.488281 609.488281 C 503.921875 562.78125 495.359375 515.832031 486.792969 468.878906 L 486.339844 466.363281 C 485.78125 463.390625 484.207031 459.195312 477.214844 456.75 C 473.757812 455.59375 469.664062 455.035156 465.15625 455.035156 Z M 465.15625 455.035156 " fill-opacity="1" fill-rule="nonzero"/><path fill="#01c3dc" d="M 946.085938 465.140625 C 937.382812 512.964844 928.644531 560.753906 919.941406 608.265625 C 910.886719 656.089844 902.183594 703.878906 893.441406 751.703125 C 886.347656 789.179688 987.753906 794.355469 994.539062 758.488281 C 1002.613281 714.542969 1010.6875 670.632812 1018.761719 626.6875 C 1026.835938 582.742188 1034.910156 538.484375 1042.988281 494.574219 C 1049.769531 458.984375 953.183594 427.347656 946.085938 465.140625 Z M 946.085938 465.140625 " fill-opacity="1" fill-rule="evenodd"/><path fill="#231f20" d="M 944.828125 789.671875 C 926.441406 789.671875 907.285156 785.230469 895.960938 775.511719 C 888.09375 768.730469 884.738281 759.816406 886.558594 750.410156 C 895.121094 703.425781 904 654.832031 913.054688 606.972656 C 921.757812 559.53125 930.496094 511.707031 939.203125 463.914062 L 939.203125 463.878906 C 941.019531 454.300781 947.484375 447.132812 957.449219 443.636719 C 980.414062 435.597656 1016.945312 447.730469 1035.367188 463.601562 C 1046.972656 473.597656 1051.972656 484.75 1049.839844 495.867188 C 1045.679688 518.453125 1041.519531 541.140625 1037.359375 563.832031 C 1033.445312 585.226562 1029.527344 606.621094 1025.613281 627.945312 L 1001.390625 759.746094 C 999.222656 771.105469 990.308594 779.847656 975.519531 785.019531 C 966.851562 788.0625 955.980469 789.671875 944.828125 789.671875 Z M 952.9375 466.398438 C 944.199219 514.222656 935.496094 562.011719 926.792969 609.488281 C 917.738281 657.3125 908.894531 705.90625 900.292969 752.929688 C 899.734375 755.828125 899.628906 760.199219 905.082031 764.882812 C 917.808594 775.828125 949.792969 779.183594 970.90625 771.804688 C 977.722656 769.429688 986.183594 764.953125 987.652344 757.15625 L 1011.875 625.394531 C 1015.789062 604.070312 1019.707031 582.671875 1023.621094 561.277344 C 1027.78125 538.589844 1031.941406 515.867188 1036.101562 493.246094 C 1037.535156 485.695312 1031.519531 478.703125 1026.242188 474.125 C 1009.359375 459.546875 978.144531 451.121094 962.0625 456.75 C 955.070312 459.230469 953.5 463.460938 952.9375 466.398438 Z M 952.9375 466.398438 " fill-opacity="1" fill-rule="nonzero"/><path fill="#ffb100" d="M 396.292969 494.539062 C 382.730469 497.128906 373.675781 510.0625 376.261719 523.625 L 416.007812 738.769531 C 418.28125 752.019531 431.527344 761.074219 444.742188 758.488281 Z M 396.292969 494.539062 " fill-opacity="1" fill-rule="evenodd"/><path fill="#231f20" d="M 440.234375 765.898438 C 433.871094 765.898438 427.542969 763.941406 422.195312 760.234375 C 415.167969 755.375 410.519531 748.171875 409.121094 739.921875 L 369.410156 524.851562 C 367.804688 516.496094 369.621094 508 374.480469 500.9375 C 379.304688 493.945312 386.609375 489.226562 395 487.617188 L 401.921875 486.289062 L 452.886719 763.941406 L 446.105469 765.269531 C 444.148438 765.6875 442.191406 765.898438 440.234375 765.898438 Z M 390.945312 504.085938 C 389.019531 505.34375 387.308594 506.984375 385.980469 508.945312 C 383.253906 512.859375 382.238281 517.613281 383.148438 522.296875 L 422.894531 737.476562 C 423.664062 742.054688 426.25 746.007812 430.164062 748.734375 C 432.054688 750.0625 434.183594 750.96875 436.386719 751.460938 Z M 390.945312 504.085938 " fill-opacity="1" fill-rule="nonzero"/><path fill="#ffb100" d="M 1042.988281 494.539062 C 1056.550781 497.128906 1065.605469 510.0625 1063.015625 523.625 L 1023.273438 738.769531 C 1021 752.019531 1007.75 761.074219 994.539062 758.488281 Z M 1042.988281 494.539062 " fill-opacity="1" fill-rule="evenodd"/><path fill="#231f20" d="M 999.011719 765.898438 C 997.054688 765.898438 995.097656 765.722656 993.175781 765.339844 L 986.390625 764.011719 L 1037.359375 486.359375 L 1044.28125 487.6875 C 1052.667969 489.296875 1059.941406 494.015625 1064.800781 501.007812 C 1069.660156 508.035156 1071.476562 516.566406 1069.867188 524.953125 L 1030.15625 740.0625 C 1028.757812 748.207031 1024.109375 755.410156 1017.085938 760.269531 C 1011.734375 763.941406 1005.375 765.898438 999.011719 765.898438 Z M 1048.335938 504.085938 L 1002.925781 751.460938 C 1005.128906 750.96875 1007.226562 750.027344 1009.148438 748.734375 C 1013.0625 746.039062 1015.652344 742.054688 1016.386719 737.582031 L 1056.128906 522.332031 C 1057.527344 515.0625 1054.207031 507.964844 1048.335938 504.085938 Z M 1048.335938 504.085938 " fill-opacity="1" fill-rule="nonzero"/><path fill="#ff47f9" d="M 379.164062 539.113281 C 355.566406 558.167969 343.648438 597.253906 351.058594 639.273438 C 358.820312 681.261719 384.335938 713.914062 413.070312 723.28125 Z M 379.164062 539.113281 " fill-opacity="1" fill-rule="evenodd"/><path fill="#231f20" d="M 422.089844 733.523438 L 410.902344 729.890625 C 378.917969 719.472656 352.105469 683.566406 344.171875 640.53125 C 336.445312 596.867188 348.472656 554.949219 374.757812 533.660156 L 383.917969 526.285156 Z M 374.722656 553.515625 C 358.890625 573.304688 352.210938 605.503906 357.945312 638.050781 C 363.957031 670.667969 381.714844 698.53125 403.808594 711.429688 Z M 374.722656 553.515625 " fill-opacity="1" fill-rule="nonzero"/><path fill="#ff47f9" d="M 1060.117188 539.113281 C 1083.710938 558.167969 1095.632812 597.253906 1087.90625 639.273438 C 1080.460938 681.261719 1054.941406 713.914062 1026.207031 723.28125 Z M 1060.117188 539.113281 " fill-opacity="1" fill-rule="evenodd"/><path fill="#231f20" d="M 1017.1875 733.523438 L 1055.363281 526.285156 L 1064.484375 533.660156 C 1090.914062 555.019531 1102.796875 596.972656 1094.757812 640.53125 C 1087.136719 683.496094 1060.464844 719.4375 1028.339844 729.890625 Z M 1064.554688 553.515625 L 1035.472656 711.429688 C 1057.597656 698.53125 1075.21875 670.667969 1080.984375 638.050781 C 1086.996094 605.503906 1080.425781 573.339844 1064.554688 553.515625 Z M 1064.554688 553.515625 " fill-opacity="1" fill-rule="nonzero"/></svg>